<?xml version="1.0" encoding="UTF-8" standalone="no"?>
<svg
   version="1.1"
   viewBox="0 0 684.14551 206.72957"
   fill="none"
   stroke="none"
   stroke-linecap="square"
   stroke-miterlimit="10"
   id="svg190"
   sodipodi:docname="grain_pipeline.svg"
   inkscape:version="1.2 (dc2aeda, 2022-05-15)"
   width="684.14551"
   height="206.72957"
   xmlns:inkscape="http://www.inkscape.org/namespaces/inkscape"
   xmlns:sodipodi="http://sodipodi.sourceforge.net/DTD/sodipodi-0.dtd"
   xmlns="http://www.w3.org/2000/svg"
   xmlns:svg="http://www.w3.org/2000/svg">
  <defs
     id="defs194" />
  <sodipodi:namedview
     id="namedview192"
     pagecolor="#ffffff"
     bordercolor="#666666"
     borderopacity="1.0"
     inkscape:showpageshadow="2"
     inkscape:pageopacity="0.0"
     inkscape:pagecheckerboard="0"
     inkscape:deskcolor="#d1d1d1"
     showgrid="false"
     inkscape:zoom="1.2979167"
     inkscape:cx="399.87158"
     inkscape:cy="177.97752"
     inkscape:window-width="1941"
     inkscape:window-height="1162"
     inkscape:window-x="0"
     inkscape:window-y="25"
     inkscape:window-maximized="0"
     inkscape:current-layer="svg190" />
  <clipPath
     id="g13ae7da100e_0_0.0">
    <path
       d="M 0,0 H 960 V 540 H 0 Z"
       clip-rule="nonzero"
       id="path2" />
  </clipPath>
  <path
     fill="#e6b8af"
     d="m 11.9316,35.48949 v 0 c 0,-2.00625 1.62638,-3.63263 3.63262,-3.63263 h 179.15994 c 0.96344,0 1.88742,0.38272 2.56867,1.06398 0.68124,0.68124 1.06396,1.60521 1.06396,2.56865 v 14.53003 c 0,2.006235 -1.62637,3.632615 -3.63263,3.632615 H 15.56422 c -2.00624,0 -3.63262,-1.62638 -3.63262,-3.632615 z"
     fill-rule="evenodd"
     id="path46" />
  <path
     stroke="#ea4335"
     stroke-width="1"
     stroke-linejoin="round"
     stroke-linecap="butt"
     d="m 11.9316,35.48949 v 0 c 0,-2.00625 1.62638,-3.63263 3.63262,-3.63263 h 179.15994 c 0.96344,0 1.88742,0.38272 2.56867,1.06398 0.68124,0.68124 1.06396,1.60521 1.06396,2.56865 v 14.53003 c 0,2.006235 -1.62637,3.632615 -3.63263,3.632615 H 15.56422 c -2.00624,0 -3.63262,-1.62638 -3.63262,-3.632615 z"
     fill-rule="evenodd"
     id="path48" />
  <path
     fill="#000000"
     d="m 50.74025,45.56888 1.26562,-0.20313 q 0.10938,0.76563 0.59375,1.17188 0.5,0.40625 1.375,0.40625 0.89063,0 1.3125,-0.35938 0.4375,-0.35937 0.4375,-0.84375 0,-0.4375 -0.375,-0.6875 Q 55.084,44.88138 54.03712,44.61575 52.61525,44.25638 52.06837,44.00638 51.5215,43.74075 51.24025,43.272 50.959,42.80325 50.959,42.25638 q 0,-0.51563 0.21875,-0.9375 0.23437,-0.4375 0.64062,-0.73438 0.29688,-0.21875 0.8125,-0.35937 0.53125,-0.15625 1.125,-0.15625 0.89063,0 1.5625,0.26562 0.67188,0.25 1,0.6875 0.32813,0.4375 0.4375,1.17188 l -1.25,0.17187 q -0.0937,-0.57812 -0.5,-0.90625 -0.40625,-0.34375 -1.15625,-0.34375 -0.89062,0 -1.28125,0.29688 -0.375,0.29687 -0.375,0.6875 0,0.25 0.15625,0.45312 0.15625,0.20313 0.5,0.34375 0.1875,0.0781 1.14063,0.32813 1.35937,0.35937 1.89062,0.59375 0.54688,0.23437 0.85938,0.6875 0.3125,0.4375 0.3125,1.09375 0,0.64062 -0.375,1.21875 -0.375,0.5625 -1.09375,0.875 -0.70313,0.3125 -1.59375,0.3125 -1.48438,0 -2.26563,-0.60938 -0.76562,-0.625 -0.98437,-1.82812 z m 7.843752,2.26562 V 37.35013 h 1.28125 v 3.75 q 0.90625,-1.03125 2.28125,-1.03125 0.84375,0 1.46875,0.32812 0.625,0.32813 0.89062,0.92188 0.26563,0.57812 0.26563,1.70312 v 4.8125 h -1.28125 V 43.022 q 0,-0.96875 -0.42188,-1.40625 -0.42187,-0.4375 -1.1875,-0.4375 -0.57812,0 -1.07812,0.29688 -0.5,0.29687 -0.71875,0.8125 -0.21875,0.5 -0.21875,1.39062 v 4.15625 z m 13.13548,0 v -1.10937 q -0.89062,1.28125 -2.42187,1.28125 -0.67188,0 -1.25,-0.25 -0.57813,-0.26563 -0.875,-0.65625 -0.28125,-0.39063 -0.39063,-0.95313 -0.0781,-0.375 -0.0781,-1.20312 v -4.70313 h 1.28125 v 4.20313 q 0,1.01562 0.0781,1.35937 0.125,0.51563 0.51563,0.8125 0.40625,0.28125 0.98437,0.28125 0.57813,0 1.07813,-0.29687 0.51562,-0.29688 0.71875,-0.8125 0.21875,-0.51563 0.21875,-1.48438 v -4.0625 h 1.28125 v 7.59375 z m 3.47924,0 v -6.59375 h -1.14063 v -1 h 1.14063 v -0.8125 q 0,-0.76562 0.125,-1.14062 0.1875,-0.5 0.65625,-0.8125 0.46875,-0.3125 1.3125,-0.3125 0.54687,0 1.20312,0.125 l -0.1875,1.125 q -0.40625,-0.0625 -0.76562,-0.0625 -0.57813,0 -0.82813,0.25 -0.23437,0.25 -0.23437,0.9375 v 0.70312 h 1.46875 v 1 h -1.46875 v 6.59375 z m 3.807,0 v -6.59375 h -1.14062 v -1 h 1.14062 v -0.8125 q 0,-0.76562 0.125,-1.14062 0.1875,-0.5 0.65625,-0.8125 0.46875,-0.3125 1.3125,-0.3125 0.54688,0 1.20313,0.125 l -0.1875,1.125 q -0.40625,-0.0625 -0.76563,-0.0625 -0.57812,0 -0.82812,0.25 -0.23438,0.25 -0.23438,0.9375 v 0.70312 h 1.46875 v 1 h -1.46875 v 6.59375 z m 3.72823,0 V 37.35013 h 1.28125 V 47.8345 Z m 8.49052,-2.45312 1.32813,0.17187 q -0.3125,1.17188 -1.17188,1.8125 -0.84375,0.64063 -2.17187,0.64063 -1.67188,0 -2.65625,-1.01563 -0.96875,-1.03125 -0.96875,-2.89062 0,-1.92188 0.98437,-2.96875 1,-1.0625 2.57813,-1.0625 1.51562,0 2.48437,1.03125 0.96875,1.03125 0.96875,2.92187 0,0.10938 -0.0156,0.34375 h -5.65625 q 0.0625,1.25 0.70312,1.92188 0.64063,0.65625 1.59375,0.65625 0.70313,0 1.20313,-0.35938 0.5,-0.375 0.79687,-1.20312 z m -4.23437,-2.07813 h 4.25 q -0.0937,-0.95312 -0.48438,-1.4375 -0.625,-0.75 -1.60937,-0.75 -0.875,0 -1.48438,0.59375 -0.60937,0.59375 -0.67187,1.59375 z m 11.56683,4.53125 v -6.59375 h -1.14062 v -1 h 1.14062 v -0.8125 q 0,-0.76562 0.125,-1.14062 0.1875,-0.5 0.65625,-0.8125 0.46875,-0.3125 1.312498,-0.3125 0.54688,0 1.20313,0.125 l -0.1875,1.125 q -0.40625,-0.0625 -0.76563,-0.0625 -0.57812,0 -0.82812,0.25 -0.234378,0.25 -0.234378,0.9375 v 0.70312 h 1.468748 v 1 h -1.468748 v 6.59375 z m 3.759478,-9.01562 v -1.46875 h 1.29687 v 1.46875 z m 0,9.01562 v -7.59375 h 1.29687 v 7.59375 z m 3.2249,0 V 37.35013 h 1.28125 V 47.8345 Z m 8.49052,-2.45312 1.32812,0.17187 q -0.3125,1.17188 -1.17187,1.8125 -0.84375,0.64063 -2.17188,0.64063 -1.67187,0 -2.65625,-1.01563 -0.96875,-1.03125 -0.96875,-2.89062 0,-1.92188 0.98438,-2.96875 1,-1.0625 2.57812,-1.0625 1.51563,0 2.48438,1.03125 0.96875,1.03125 0.96875,2.92187 0,0.10938 -0.0156,0.34375 h -5.65625 q 0.0625,1.25 0.70313,1.92188 0.64062,0.65625 1.59375,0.65625 0.70312,0 1.20312,-0.35938 0.5,-0.375 0.79688,-1.20312 z m -4.23438,-2.07813 h 4.25 q -0.0937,-0.95312 -0.48437,-1.4375 -0.625,-0.75 -1.60938,-0.75 -0.875,0 -1.48437,0.59375 -0.60938,0.59375 -0.67188,1.59375 z m 7.18236,4.53125 v -7.59375 h 1.15625 v 1.07813 q 0.84375,-1.25 2.42188,-1.25 0.6875,0 1.26562,0.25 0.57813,0.23437 0.85938,0.64062 0.28125,0.40625 0.40625,0.95313 0.0625,0.35937 0.0625,1.25 v 4.67187 h -1.28125 v -4.625 q 0,-0.78125 -0.15625,-1.17187 -0.15625,-0.39063 -0.54688,-0.625 -0.375,-0.23438 -0.89062,-0.23438 -0.8125,0 -1.42188,0.53125 -0.59375,0.51563 -0.59375,1.96875 v 4.15625 z m 13.10424,-0.9375 q -0.71875,0.60938 -1.375,0.85938 -0.65625,0.25 -1.42188,0.25 -1.25,0 -1.92187,-0.60938 -0.67188,-0.60937 -0.67188,-1.5625 0,-0.5625 0.25,-1.01562 0.25,-0.46875 0.65625,-0.75 0.42188,-0.28125 0.9375,-0.42188 0.375,-0.0937 1.14063,-0.1875 1.5625,-0.1875 2.29687,-0.45312 0.0156,-0.26563 0.0156,-0.32813 0,-0.79687 -0.375,-1.10937 -0.48438,-0.4375 -1.45313,-0.4375 -0.92187,0 -1.35937,0.32812 -0.42188,0.3125 -0.625,1.10938 L 124.91214,42.397 q 0.17188,-0.79687 0.5625,-1.29687 0.39063,-0.5 1.14063,-0.76563 0.75,-0.26562 1.71875,-0.26562 0.98437,0 1.59375,0.23437 0.60937,0.21875 0.89062,0.5625 0.28125,0.34375 0.40625,0.875 0.0625,0.32813 0.0625,1.1875 V 44.647 q 0,1.79688 0.0781,2.28125 0.0781,0.46875 0.32812,0.90625 h -1.34375 q -0.20312,-0.40625 -0.26562,-0.9375 z m -0.10938,-2.875 q -0.70312,0.28125 -2.09375,0.48438 -0.79687,0.10937 -1.125,0.26562 -0.32812,0.14063 -0.51562,0.42188 -0.17188,0.26562 -0.17188,0.59375 0,0.51562 0.39063,0.85937 0.39062,0.34375 1.14062,0.34375 0.73438,0 1.3125,-0.3125 0.59375,-0.32812 0.85938,-0.89062 0.20312,-0.4375 0.20312,-1.29688 z m 3.30736,3.8125 v -7.59375 h 1.15625 v 1.0625 q 0.34375,-0.5625 0.9375,-0.89062 0.60937,-0.34375 1.35937,-0.34375 0.84375,0 1.375,0.34375 0.54688,0.34375 0.76563,0.98437 0.90625,-1.32812 2.35937,-1.32812 1.125,0 1.73438,0.625 0.60937,0.625 0.60937,1.92187 v 5.21875 h -1.28125 v -4.78125 q 0,-0.78125 -0.125,-1.10937 -0.125,-0.34375 -0.45312,-0.54688 -0.32813,-0.21875 -0.78125,-0.21875 -0.79688,0 -1.32813,0.53125 -0.53125,0.53125 -0.53125,1.70313 v 4.42187 h -1.28125 V 42.897 q 0,-0.85937 -0.3125,-1.28125 -0.3125,-0.4375 -1.03125,-0.4375 -0.54687,0 -1.01562,0.29688 -0.45313,0.28125 -0.67188,0.82812 -0.20312,0.54688 -0.20312,1.59375 v 3.9375 z m 17.41189,-2.45312 1.32813,0.17187 q -0.3125,1.17188 -1.17188,1.8125 -0.84375,0.64063 -2.17187,0.64063 -1.67188,0 -2.65625,-1.01563 -0.96875,-1.03125 -0.96875,-2.89062 0,-1.92188 0.98437,-2.96875 1,-1.0625 2.57813,-1.0625 1.51562,0 2.48437,1.03125 0.96875,1.03125 0.96875,2.92187 0,0.10938 -0.0156,0.34375 h -5.65625 q 0.0625,1.25 0.70312,1.92188 0.64063,0.65625 1.59375,0.65625 0.70313,0 1.20313,-0.35938 0.5,-0.375 0.79687,-1.20312 z m -4.23437,-2.07813 h 4.25 q -0.0937,-0.95312 -0.48438,-1.4375 -0.625,-0.75 -1.60937,-0.75 -0.875,0 -1.48438,0.59375 -0.60937,0.59375 -0.67187,1.59375 z m 6.66675,2.26563 1.26562,-0.20313 q 0.10938,0.76563 0.59375,1.17188 0.5,0.40625 1.375,0.40625 0.89063,0 1.3125,-0.35938 0.4375,-0.35937 0.4375,-0.84375 0,-0.4375 -0.375,-0.6875 -0.26562,-0.17187 -1.3125,-0.4375 -1.42187,-0.35937 -1.96875,-0.60937 -0.54687,-0.26563 -0.82812,-0.73438 -0.28125,-0.46875 -0.28125,-1.01562 0,-0.51563 0.21875,-0.9375 0.23437,-0.4375 0.64062,-0.73438 0.29688,-0.21875 0.8125,-0.35937 0.53125,-0.15625 1.125,-0.15625 0.89063,0 1.5625,0.26562 0.67188,0.25 1,0.6875 0.32813,0.4375 0.4375,1.17188 l -1.25,0.17187 q -0.0937,-0.57812 -0.5,-0.90625 -0.40625,-0.34375 -1.15625,-0.34375 -0.89062,0 -1.28125,0.29688 -0.375,0.29687 -0.375,0.6875 0,0.25 0.15625,0.45312 0.15625,0.20313 0.5,0.34375 0.1875,0.0781 1.14063,0.32813 1.35937,0.35937 1.89062,0.59375 0.54688,0.23437 0.85938,0.6875 0.3125,0.4375 0.3125,1.09375 0,0.64062 -0.375,1.21875 -0.375,0.5625 -1.09375,0.875 -0.70313,0.3125 -1.59375,0.3125 -1.48438,0 -2.26563,-0.60938 -0.76562,-0.625 -0.98437,-1.82812 z"
     fill-rule="nonzero"
     id="path50" />
  <path
     fill="#e6b8af"
     d="m 11.9316,73.633825 v 0 c 0,-2.00623 1.62638,-3.63261 3.63262,-3.63261 h 179.15994 c 0.96344,0 1.88742,0.38272 2.56867,1.06396 0.68124,0.68126 1.06396,1.60523 1.06396,2.56865 v 14.53004 c 0,2.00625 -1.62637,3.63262 -3.63263,3.63262 H 15.56422 c -2.00624,0 -3.63262,-1.62637 -3.63262,-3.63262 z"
     fill-rule="evenodd"
     id="path52" />
  <path
     stroke="#ea4335"
     stroke-width="1"
     stroke-linejoin="round"
     stroke-linecap="butt"
     d="m 11.9316,73.633825 v 0 c 0,-2.00623 1.62638,-3.63261 3.63262,-3.63261 h 179.15994 c 0.96344,0 1.88742,0.38272 2.56867,1.06396 0.68124,0.68126 1.06396,1.60523 1.06396,2.56865 v 14.53004 c 0,2.00625 -1.62637,3.63262 -3.63263,3.63262 H 15.56422 c -2.00624,0 -3.63262,-1.62637 -3.63262,-3.63262 z"
     fill-rule="evenodd"
     id="path54" />
  <path
     fill="#000000"
     d="m 49.89607,76.963235 v -1.46875 h 1.29687 v 1.46875 z m 0,9.01562 v -7.59375 h 1.29687 v 7.59375 z m 3.25615,0 v -7.59375 h 1.15625 v 1.07813 q 0.84375,-1.25 2.42187,-1.25 0.6875,0 1.26563,0.25 0.578122,0.23437 0.859372,0.64062 0.28125,0.40625 0.40625,0.95313 0.0625,0.35937 0.0625,1.25 v 4.67187 H 58.04284 v -4.625 q 0,-0.78125 -0.15625,-1.17187 -0.15625,-0.39063 -0.54687,-0.625 -0.375,-0.23438 -0.89063,-0.23438 -0.8125,0 -1.42187,0.53125 -0.59375,0.51563 -0.59375,1.96875 v 4.15625 z m 10.963612,-1.15625 0.1875,1.14063 q -0.54688,0.10937 -0.98438,0.10937 -0.6875,0 -1.07812,-0.21875 -0.39063,-0.21875 -0.54688,-0.57812 -0.15625,-0.35938 -0.15625,-1.51563 v -4.375 h -0.95312 v -1 h 0.95312 v -1.89062 l 1.28125,-0.76563 v 2.65625 h 1.29688 v 1 h -1.29688 v 4.4375 q 0,0.54688 0.0625,0.71875 0.0781,0.15625 0.21875,0.25 0.15625,0.0781 0.45313,0.0781 0.20312,0 0.5625,-0.0469 z m 6.4626,-1.29687 1.32812,0.17187 q -0.3125,1.17188 -1.17187,1.8125 -0.84375,0.64063 -2.17188,0.64063 -1.67187,0 -2.65625,-1.01563 -0.96875,-1.03125 -0.96875,-2.89062 0,-1.92188 0.98438,-2.96875 1,-1.0625 2.57812,-1.0625 1.51563,0 2.48438,1.03125 0.96875,1.03125 0.96875,2.92187 0,0.10938 -0.0156,0.34375 h -5.65625 q 0.0625,1.25 0.70313,1.92188 0.64062,0.65625 1.59375,0.65625 0.70312,0 1.20312,-0.35938 0.5,-0.375 0.79688,-1.20312 z m -4.23438,-2.07813 h 4.25 q -0.0937,-0.95312 -0.48437,-1.4375 -0.625,-0.75 -1.60938,-0.75 -0.875,0 -1.48437,0.59375 -0.60938,0.59375 -0.67188,1.59375 z m 7.16674,4.53125 v -7.59375 h 1.15625 v 1.14063 q 0.45312,-0.79688 0.82812,-1.04688 0.375,-0.26562 0.8125,-0.26562 0.65625,0 1.32813,0.40625 l -0.4375,1.20312 q -0.46875,-0.28125 -0.95313,-0.28125 -0.42187,0 -0.76562,0.25 -0.32813,0.25 -0.46875,0.70313 -0.21875,0.6875 -0.21875,1.5 v 3.98437 z m 4.86502,0 v -10.48437 h 1.28125 v 10.48437 z m 8.49052,-2.45312 1.32813,0.17187 q -0.3125,1.17188 -1.17188,1.8125 -0.84375,0.64063 -2.17187,0.64063 -1.67188,0 -2.65625,-1.01563 -0.96875,-1.03125 -0.96875,-2.89062 0,-1.92188 0.98437,-2.96875 1,-1.0625 2.57813,-1.0625 1.51562,0 2.48437,1.03125 0.96875,1.03125 0.96875,2.92187 0,0.10938 -0.0156,0.34375 h -5.65625 q 0.0625,1.25 0.70312,1.92188 0.64063,0.65625 1.59375,0.65625 0.70313,0 1.20313,-0.35938 0.5,-0.375 0.79687,-1.20312 z m -4.23437,-2.07813 h 4.25 q -0.0937,-0.95312 -0.48438,-1.4375 -0.625,-0.75 -1.60937,-0.75 -0.875,0 -1.48438,0.59375 -0.60937,0.59375 -0.67187,1.59375 z m 12.13548,3.59375 q -0.71875,0.60938 -1.375,0.85938 -0.65625,0.25 -1.42188,0.25 -1.25,0 -1.92187,-0.60938 -0.67188,-0.60937 -0.67188,-1.5625 0,-0.5625 0.25,-1.01562 0.25,-0.46875 0.65625,-0.75 0.42188,-0.28125 0.9375,-0.42188 0.375,-0.0937 1.14063,-0.1875 1.5625,-0.1875 2.29687,-0.45312 0.0156,-0.26563 0.0156,-0.32813 0,-0.79687 -0.375,-1.10937 -0.48438,-0.4375 -1.45313,-0.4375 -0.92187,0 -1.35937,0.32812 -0.42188,0.3125 -0.625,1.10938 l -1.26563,-0.17188 q 0.17188,-0.79687 0.5625,-1.29687 0.39063,-0.5 1.14063,-0.76563 0.75,-0.26562 1.71875,-0.26562 0.98437,0 1.59375,0.23437 0.60937,0.21875 0.89062,0.5625 0.28125,0.34375 0.40625,0.875 0.0625,0.32813 0.0625,1.1875 v 1.71875 q 0,1.79688 0.0781,2.28125 0.0781,0.46875 0.32812,0.90625 h -1.34375 q -0.20312,-0.40625 -0.26562,-0.9375 z m -0.10938,-2.875 q -0.70312,0.28125 -2.09375,0.48438 -0.79687,0.10937 -1.125,0.26562 -0.32812,0.14063 -0.51562,0.42188 -0.17188,0.26562 -0.17188,0.59375 0,0.51562 0.39063,0.85937 0.39062,0.34375 1.14062,0.34375 0.73438,0 1.3125,-0.3125 0.59375,-0.32812 0.85938,-0.89062 0.20312,-0.4375 0.20312,-1.29688 z m 5.416738,3.8125 -2.890628,-7.59375 h 1.35938 l 1.624998,4.54688 q 0.26562,0.73437 0.5,1.53125 0.15625,-0.60938 0.46875,-1.45313 l 1.6875,-4.625 h 1.32812 l -2.875,7.59375 z m 10.42187,-2.45312 1.32813,0.17187 q -0.3125,1.17188 -1.17188,1.8125 -0.84375,0.64063 -2.17187,0.64063 -1.67188,0 -2.65625,-1.01563 -0.96875,-1.03125 -0.96875,-2.89062 0,-1.92188 0.98437,-2.96875 1,-1.0625 2.57813,-1.0625 1.51562,0 2.48437,1.03125 0.96875,1.03125 0.96875,2.92187 0,0.10938 -0.0156,0.34375 h -5.65625 q 0.0625,1.25 0.70312,1.92188 0.64063,0.65625 1.59375,0.65625 0.70313,0 1.20313,-0.35938 0.5,-0.375 0.79687,-1.20312 z m -4.23437,-2.07813 h 4.25 q -0.0937,-0.95312 -0.48438,-1.4375 -0.625,-0.75 -1.60937,-0.75 -0.875,0 -1.48438,0.59375 -0.60937,0.59375 -0.67187,1.59375 z m 12.10423,4.53125 v -0.95312 q -0.71875,1.125 -2.125,1.125 -0.90625,0 -1.67188,-0.5 -0.75,-0.5 -1.17187,-1.39063 -0.42188,-0.90625 -0.42188,-2.07812 0,-1.14063 0.375,-2.0625 0.39063,-0.92188 1.14063,-1.40625 0.76562,-0.5 1.70312,-0.5 0.6875,0 1.21875,0.29687 0.53125,0.28125 0.875,0.73438 v -3.75 h 1.28125 v 10.48437 z m -4.0625,-3.79687 q 0,1.46875 0.60937,2.1875 0.625,0.71875 1.45313,0.71875 0.84375,0 1.4375,-0.6875 0.59375,-0.6875 0.59375,-2.10938 0,-1.5625 -0.60938,-2.28125 -0.59375,-0.73437 -1.48437,-0.73437 -0.84375,0 -1.42188,0.70312 -0.57812,0.70313 -0.57812,2.20313 z m 11.34808,3.79687 v -7.59375 h 1.15625 v 1.14063 q 0.45313,-0.79688 0.82813,-1.04688 0.375,-0.26562 0.8125,-0.26562 0.65625,0 1.32812,0.40625 l -0.4375,1.20312 q -0.46875,-0.28125 -0.95312,-0.28125 -0.42188,0 -0.76563,0.25 -0.32812,0.25 -0.46875,0.70313 -0.21875,0.6875 -0.21875,1.5 v 3.98437 z m 10.0994,-2.45312 1.32812,0.17187 q -0.3125,1.17188 -1.17187,1.8125 -0.84375,0.64063 -2.17188,0.64063 -1.67187,0 -2.65625,-1.01563 -0.96875,-1.03125 -0.96875,-2.89062 0,-1.92188 0.98438,-2.96875 1,-1.0625 2.57812,-1.0625 1.51563,0 2.48438,1.03125 0.96875,1.03125 0.96875,2.92187 0,0.10938 -0.0156,0.34375 h -5.65625 q 0.0625,1.25 0.70313,1.92188 0.64062,0.65625 1.59375,0.65625 0.70312,0 1.20312,-0.35938 0.5,-0.375 0.79688,-1.20312 z m -4.23438,-2.07813 h 4.25 q -0.0937,-0.95312 -0.48437,-1.4375 -0.625,-0.75 -1.60938,-0.75 -0.875,0 -1.48437,0.59375 -0.60938,0.59375 -0.67188,1.59375 z m 12.13549,3.59375 q -0.71875,0.60938 -1.375,0.85938 -0.65625,0.25 -1.42188,0.25 -1.25,0 -1.92187,-0.60938 -0.67188,-0.60937 -0.67188,-1.5625 0,-0.5625 0.25,-1.01562 0.25,-0.46875 0.65625,-0.75 0.42188,-0.28125 0.9375,-0.42188 0.375,-0.0937 1.14063,-0.1875 1.5625,-0.1875 2.29687,-0.45312 0.0156,-0.26563 0.0156,-0.32813 0,-0.79687 -0.375,-1.10937 -0.48438,-0.4375 -1.45313,-0.4375 -0.92187,0 -1.35937,0.32812 -0.42188,0.3125 -0.625,1.10938 l -1.26563,-0.17188 q 0.17188,-0.79687 0.5625,-1.29687 0.39063,-0.5 1.14063,-0.76563 0.75,-0.26562 1.71875,-0.26562 0.98437,0 1.59375,0.23437 0.60937,0.21875 0.89062,0.5625 0.28125,0.34375 0.40625,0.875 0.0625,0.32813 0.0625,1.1875 v 1.71875 q 0,1.79688 0.0781,2.28125 0.0781,0.46875 0.32812,0.90625 h -1.34375 q -0.20312,-0.40625 -0.26562,-0.9375 z m -0.10938,-2.875 q -0.70312,0.28125 -2.09375,0.48438 -0.79687,0.10937 -1.125,0.26562 -0.32812,0.14063 -0.51562,0.42188 -0.17188,0.26562 -0.17188,0.59375 0,0.51562 0.39063,0.85937 0.39062,0.34375 1.14062,0.34375 0.73438,0 1.3125,-0.3125 0.59375,-0.32812 0.85938,-0.89062 0.20312,-0.4375 0.20312,-1.29688 z m 8.22924,3.8125 v -0.95312 q -0.71875,1.125 -2.125,1.125 -0.90625,0 -1.67188,-0.5 -0.75,-0.5 -1.17187,-1.39063 -0.42188,-0.90625 -0.42188,-2.07812 0,-1.14063 0.375,-2.0625 0.39063,-0.92188 1.14063,-1.40625 0.76562,-0.5 1.70312,-0.5 0.6875,0 1.21875,0.29687 0.53125,0.28125 0.875,0.73438 v -3.75 h 1.28125 v 10.48437 z m -4.0625,-3.79687 q 0,1.46875 0.60937,2.1875 0.625,0.71875 1.45313,0.71875 0.84375,0 1.4375,-0.6875 0.59375,-0.6875 0.59375,-2.10938 0,-1.5625 -0.60938,-2.28125 -0.59375,-0.73437 -1.48437,-0.73437 -0.84375,0 -1.42188,0.70312 -0.57812,0.70313 -0.57812,2.20313 z m 6.77612,1.53125 1.26562,-0.20313 q 0.10938,0.76563 0.59375,1.17188 0.5,0.40625 1.375,0.40625 0.89063,0 1.3125,-0.35938 0.4375,-0.35937 0.4375,-0.84375 0,-0.4375 -0.375,-0.6875 -0.26562,-0.17187 -1.3125,-0.4375 -1.42187,-0.35937 -1.96875,-0.60937 -0.54687,-0.26563 -0.82812,-0.73438 -0.28125,-0.46875 -0.28125,-1.01562 0,-0.51563 0.21875,-0.9375 0.23437,-0.4375 0.64062,-0.73438 0.29688,-0.21875 0.8125,-0.35937 0.53125,-0.15625 1.125,-0.15625 0.89063,0 1.5625,0.26562 0.67188,0.25 1,0.6875 0.32813,0.4375 0.4375,1.17188 l -1.25,0.17187 q -0.0937,-0.57812 -0.5,-0.90625 -0.40625,-0.34375 -1.15625,-0.34375 -0.89062,0 -1.28125,0.29688 -0.375,0.29687 -0.375,0.6875 0,0.25 0.15625,0.45312 0.15625,0.20313 0.5,0.34375 0.1875,0.0781 1.14063,0.32813 1.35937,0.35937 1.89062,0.59375 0.54688,0.23437 0.85938,0.6875 0.3125,0.4375 0.3125,1.09375 0,0.64062 -0.375,1.21875 -0.375,0.5625 -1.09375,0.875 -0.70313,0.3125 -1.59375,0.3125 -1.48438,0 -2.26563,-0.60938 -0.76562,-0.625 -0.98437,-1.82812 z"
     fill-rule="nonzero"
     id="path56" />
  <path
     fill="#e6b8af"
     d="m 11.9316,111.7782 v 0 c 0,-2.00624 1.62638,-3.63261 3.63262,-3.63261 h 179.15994 c 0.96344,0 1.88742,0.38272 2.56867,1.06396 0.68124,0.68124 1.06396,1.60523 1.06396,2.56865 v 14.53003 c 0,2.00625 -1.62637,3.63262 -3.63263,3.63262 H 15.56422 c -2.00624,0 -3.63262,-1.62637 -3.63262,-3.63262 z"
     fill-rule="evenodd"
     id="path58" />
  <path
     stroke="#ea4335"
     stroke-width="1"
     stroke-linejoin="round"
     stroke-linecap="butt"
     d="m 11.9316,111.7782 v 0 c 0,-2.00624 1.62638,-3.63261 3.63262,-3.63261 h 179.15994 c 0.96344,0 1.88742,0.38272 2.56867,1.06396 0.68124,0.68124 1.06396,1.60523 1.06396,2.56865 v 14.53003 c 0,2.00625 -1.62637,3.63262 -3.63263,3.63262 H 15.56422 c -2.00624,0 -3.63262,-1.62637 -3.63262,-3.63262 z"
     fill-rule="evenodd"
     id="path60" />
  <path
     fill="#000000"
     d="m 47.89917,121.85759 1.26562,-0.20313 q 0.10938,0.76563 0.59375,1.17188 0.5,0.40625 1.375,0.40625 0.89063,0 1.3125,-0.35938 0.4375,-0.35937 0.4375,-0.84375 0,-0.4375 -0.375,-0.6875 -0.26562,-0.17187 -1.3125,-0.4375 -1.42187,-0.35937 -1.96875,-0.60937 -0.54687,-0.26563 -0.82812,-0.73438 -0.28125,-0.46875 -0.28125,-1.01562 0,-0.51563 0.21875,-0.9375 0.23437,-0.4375 0.64062,-0.73438 0.29688,-0.21875 0.8125,-0.35937 0.53125,-0.15625 1.125,-0.15625 0.89063,0 1.5625,0.26562 0.67188,0.25 1,0.6875 0.32813,0.4375 0.4375,1.17188 l -1.25,0.17187 q -0.0937,-0.57812 -0.5,-0.90625 -0.40625,-0.34375 -1.15625,-0.34375 -0.89062,0 -1.28125,0.29688 -0.375,0.29687 -0.375,0.6875 0,0.25 0.15625,0.45312 0.15625,0.20313 0.5,0.34375 0.1875,0.0781 1.14063,0.32813 1.35937,0.35937 1.89062,0.59375 0.54688,0.23437 0.85938,0.6875 0.3125,0.4375 0.3125,1.09375 0,0.64062 -0.375,1.21875 -0.375,0.5625 -1.09375,0.875 -0.70313,0.3125 -1.59375,0.3125 -1.48438,0 -2.26563,-0.60938 -0.76562,-0.625 -0.98437,-1.82812 z m 7.84375,2.26562 v -10.48437 h 1.28125 v 3.75 q 0.90625,-1.03125 2.281252,-1.03125 0.84375,0 1.46875,0.32812 0.625,0.32813 0.89062,0.92188 0.26563,0.57812 0.26563,1.70312 v 4.8125 h -1.28125 v -4.8125 q 0,-0.96875 -0.42188,-1.40625 -0.42187,-0.4375 -1.1875,-0.4375 -0.57812,0 -1.078122,0.29688 -0.5,0.29687 -0.71875,0.8125 -0.21875,0.5 -0.21875,1.39062 v 4.15625 z m 13.135482,0 v -1.10937 q -0.89062,1.28125 -2.42187,1.28125 -0.67188,0 -1.25,-0.25 -0.57813,-0.26563 -0.875,-0.65625 -0.28125,-0.39063 -0.39063,-0.95313 -0.0781,-0.375 -0.0781,-1.20312 v -4.70313 h 1.28125 v 4.20313 q 0,1.01562 0.0781,1.35937 0.125,0.51563 0.51563,0.8125 0.40625,0.28125 0.98437,0.28125 0.57813,0 1.07813,-0.29687 0.51562,-0.29688 0.71875,-0.8125 0.21875,-0.51563 0.21875,-1.48438 v -4.0625 h 1.28125 v 7.59375 z m 3.47924,0 v -6.59375 h -1.14063 v -1 h 1.14063 v -0.8125 q 0,-0.76562 0.125,-1.14062 0.1875,-0.5 0.65625,-0.8125 0.46875,-0.3125 1.3125,-0.3125 0.54687,0 1.20312,0.125 l -0.1875,1.125 q -0.40625,-0.0625 -0.76562,-0.0625 -0.57813,0 -0.82813,0.25 -0.23437,0.25 -0.23437,0.9375 v 0.70312 h 1.46875 v 1 h -1.46875 v 6.59375 z m 3.807,0 v -6.59375 h -1.14062 v -1 h 1.14062 v -0.8125 q 0,-0.76562 0.125,-1.14062 0.1875,-0.5 0.65625,-0.8125 0.46875,-0.3125 1.3125,-0.3125 0.54688,0 1.20313,0.125 l -0.1875,1.125 q -0.40625,-0.0625 -0.76563,-0.0625 -0.57812,0 -0.82812,0.25 -0.23438,0.25 -0.23438,0.9375 v 0.70312 h 1.46875 v 1 h -1.46875 v 6.59375 z m 3.72823,0 v -10.48437 h 1.28125 v 10.48437 z m 8.49052,-2.45312 1.32813,0.17187 q -0.3125,1.17188 -1.17188,1.8125 -0.84375,0.64063 -2.17187,0.64063 -1.67188,0 -2.65625,-1.01563 -0.96875,-1.03125 -0.96875,-2.89062 0,-1.92188 0.98437,-2.96875 1,-1.0625 2.57813,-1.0625 1.51562,0 2.48437,1.03125 0.96875,1.03125 0.96875,2.92187 0,0.10938 -0.0156,0.34375 h -5.65625 q 0.0625,1.25 0.70312,1.92188 0.64063,0.65625 1.59375,0.65625 0.70313,0 1.20313,-0.35938 0.5,-0.375 0.79687,-1.20312 z m -4.23437,-2.07813 h 4.25 q -0.0937,-0.95312 -0.48438,-1.4375 -0.625,-0.75 -1.60937,-0.75 -0.875,0 -1.48438,0.59375 -0.60937,0.59375 -0.67187,1.59375 z m 11.25433,-4.48437 v -1.46875 h 1.29688 v 1.46875 z m 0,9.01562 v -7.59375 h 1.29688 v 7.59375 z m 3.25615,0 v -7.59375 h 1.15625 v 1.07813 q 0.843748,-1.25 2.421878,-1.25 0.6875,0 1.26562,0.25 0.57813,0.23437 0.85938,0.64062 0.28125,0.40625 0.40625,0.95313 0.0625,0.35937 0.0625,1.25 v 4.67187 h -1.28125 v -4.625 q 0,-0.78125 -0.15625,-1.17187 -0.15625,-0.39063 -0.54688,-0.625 -0.375,-0.23438 -0.89062,-0.23438 -0.8125,0 -1.42188,0.53125 -0.593748,0.51563 -0.593748,1.96875 v 4.15625 z m 12.223078,0 v -7.59375 h 1.15625 v 1.0625 q 0.34375,-0.5625 0.9375,-0.89062 0.60938,-0.34375 1.35938,-0.34375 0.84375,0 1.375,0.34375 0.54687,0.34375 0.76562,0.98437 0.90625,-1.32812 2.35938,-1.32812 1.125,0 1.73437,0.625 0.60938,0.625 0.60938,1.92187 v 5.21875 h -1.28125 v -4.78125 q 0,-0.78125 -0.125,-1.10937 -0.125,-0.34375 -0.45313,-0.54688 -0.32812,-0.21875 -0.78125,-0.21875 -0.79687,0 -1.32812,0.53125 -0.53125,0.53125 -0.53125,1.70313 v 4.42187 h -1.28125 v -4.9375 q 0,-0.85937 -0.3125,-1.28125 -0.3125,-0.4375 -1.03125,-0.4375 -0.54688,0 -1.01563,0.29688 -0.45312,0.28125 -0.67187,0.82812 -0.20313,0.54688 -0.20313,1.59375 v 3.9375 z m 17.4119,-2.45312 1.32812,0.17187 q -0.3125,1.17188 -1.17187,1.8125 -0.84375,0.64063 -2.17188,0.64063 -1.67187,0 -2.65625,-1.01563 -0.96875,-1.03125 -0.96875,-2.89062 0,-1.92188 0.98438,-2.96875 1,-1.0625 2.57812,-1.0625 1.51563,0 2.48438,1.03125 0.96875,1.03125 0.96875,2.92187 0,0.10938 -0.0156,0.34375 h -5.65625 q 0.0625,1.25 0.70313,1.92188 0.64062,0.65625 1.59375,0.65625 0.70312,0 1.20312,-0.35938 0.5,-0.375 0.79688,-1.20312 z m -4.23438,-2.07813 h 4.25 q -0.0937,-0.95312 -0.48437,-1.4375 -0.625,-0.75 -1.60938,-0.75 -0.875,0 -1.48437,0.59375 -0.60938,0.59375 -0.67188,1.59375 z m 7.18236,4.53125 v -7.59375 h 1.15625 v 1.0625 q 0.34375,-0.5625 0.9375,-0.89062 0.60938,-0.34375 1.35938,-0.34375 0.84375,0 1.375,0.34375 0.54687,0.34375 0.76562,0.98437 0.90625,-1.32812 2.35938,-1.32812 1.125,0 1.73437,0.625 0.60938,0.625 0.60938,1.92187 v 5.21875 h -1.28125 v -4.78125 q 0,-0.78125 -0.125,-1.10937 -0.125,-0.34375 -0.45313,-0.54688 -0.32812,-0.21875 -0.78125,-0.21875 -0.79687,0 -1.32812,0.53125 -0.53125,0.53125 -0.53125,1.70313 v 4.42187 h -1.28125 v -4.9375 q 0,-0.85937 -0.3125,-1.28125 -0.3125,-0.4375 -1.03125,-0.4375 -0.54688,0 -1.01563,0.29688 -0.45312,0.28125 -0.67187,0.82812 -0.20313,0.54688 -0.20313,1.59375 v 3.9375 z m 11.7244,-3.79687 q 0,-2.10938 1.17187,-3.125 0.98438,-0.84375 2.39063,-0.84375 1.57814,0 2.56251,1.03125 1,1.01562 1,2.82812 0,1.46875 -0.4375,2.3125 -0.4375,0.82813 -1.28125,1.29688 -0.84375,0.46875 -1.84376,0.46875 -1.59375,0 -2.57813,-1.01563 -0.98437,-1.03125 -0.98437,-2.95312 z m 1.32812,0 q 0,1.45312 0.625,2.1875 0.64063,0.71875 1.60938,0.71875 0.96876,0 1.59376,-0.71875 0.64063,-0.73438 0.64063,-2.23438 0,-1.40625 -0.64063,-2.125 -0.64062,-0.73437 -1.59376,-0.73437 -0.96875,0 -1.60938,0.71875 -0.625,0.71875 -0.625,2.1875 z m 7.29174,3.79687 v -7.59375 h 1.15625 v 1.14063 q 0.45312,-0.79688 0.82812,-1.04688 0.375,-0.26562 0.8125,-0.26562 0.65625,0 1.32813,0.40625 l -0.4375,1.20312 q -0.46875,-0.28125 -0.95313,-0.28125 -0.42187,0 -0.76562,0.25 -0.32813,0.25 -0.46875,0.70313 -0.21875,0.6875 -0.21875,1.5 v 3.98437 z m 4.83377,2.92188 -0.14063,-1.20313 q 0.42188,0.10938 0.73438,0.10938 0.4375,0 0.6875,-0.14063 0.26562,-0.14062 0.42187,-0.40625 0.125,-0.1875 0.39063,-0.95312 0.0469,-0.10938 0.125,-0.3125 l -2.89063,-7.60938 h 1.39063 l 1.57812,4.39063 q 0.3125,0.84375 0.54688,1.76562 0.23437,-0.89062 0.53125,-1.73437 l 1.625,-4.42188 h 1.29687 l -2.89062,7.71875 q -0.46875,1.25 -0.73438,1.73438 -0.34375,0.625 -0.78125,0.92187 -0.4375,0.29688 -1.0625,0.29688 -0.375,0 -0.82812,-0.15625 z"
     fill-rule="nonzero"
     id="path62" />
  <path
     fill="#e6b8af"
     d="m 11.9316,149.92255 v 0 c 0,-2.00624 1.62638,-3.63263 3.63262,-3.63263 h 179.15994 c 0.96344,0 1.88742,0.38272 2.56867,1.06398 0.68124,0.68124 1.06396,1.60521 1.06396,2.56865 v 14.53003 c 0,2.00624 -1.62637,3.63261 -3.63263,3.63261 H 15.56422 c -2.00624,0 -3.63262,-1.62637 -3.63262,-3.63261 z"
     fill-rule="evenodd"
     id="path64" />
  <path
     stroke="#ea4335"
     stroke-width="1"
     stroke-linejoin="round"
     stroke-linecap="butt"
     d="m 11.9316,149.92255 v 0 c 0,-2.00624 1.62638,-3.63263 3.63262,-3.63263 h 179.15994 c 0.96344,0 1.88742,0.38272 2.56867,1.06398 0.68124,0.68124 1.06396,1.60521 1.06396,2.56865 v 14.53003 c 0,2.00624 -1.62637,3.63261 -3.63263,3.63261 H 15.56422 c -2.00624,0 -3.63262,-1.62637 -3.63262,-3.63261 z"
     fill-rule="evenodd"
     id="path66" />
  <path
     fill="#000000"
     d="m 69.862352,165.17381 v -10.5 h 1.17187 v 0.98437 q 0.42188,-0.57812 0.9375,-0.85937 0.51563,-0.29688 1.26563,-0.29688 0.96875,0 1.71875,0.5 0.75,0.5 1.125,1.42188 0.375,0.90625 0.375,1.98437 0,1.17188 -0.42188,2.10938 -0.40625,0.92187 -1.21875,1.42187 -0.79687,0.5 -1.67187,0.5 -0.64063,0 -1.15625,-0.26562 -0.51563,-0.28125 -0.84375,-0.6875 v 3.6875 z m 1.15625,-6.65625 q 0,1.45312 0.59375,2.15625 0.60937,0.70312 1.45312,0.70312 0.85938,0 1.46875,-0.71875 0.60938,-0.73437 0.60938,-2.25 0,-1.45312 -0.60938,-2.17187 -0.59375,-0.73438 -1.42187,-0.73438 -0.8125,0 -1.45313,0.78125 -0.64062,0.76563 -0.64062,2.23438 z m 6.97923,3.75 v -7.59375 h 1.15625 v 1.14062 q 0.45313,-0.79687 0.82813,-1.04687 0.375,-0.26563 0.8125,-0.26563 0.65625,0 1.32812,0.40625 l -0.4375,1.20313 q -0.46875,-0.28125 -0.95312,-0.28125 -0.42188,0 -0.76563,0.25 -0.32812,0.25 -0.46875,0.70312 -0.21875,0.6875 -0.21875,1.5 v 3.98438 z m 10.0994,-2.45313 1.32812,0.17188 q -0.3125,1.17187 -1.17187,1.8125 -0.84375,0.64062 -2.17188,0.64062 -1.67187,0 -2.65625,-1.01562 -0.96875,-1.03125 -0.96875,-2.89063 0,-1.92187 0.98438,-2.96875 1,-1.0625 2.57812,-1.0625 1.51563,0 2.48438,1.03125 0.96875,1.03125 0.96875,2.92188 0,0.10937 -0.0156,0.34375 h -5.65625 q 0.0625,1.25 0.70313,1.92187 0.64062,0.65625 1.59375,0.65625 0.70312,0 1.20312,-0.35937 0.5,-0.375 0.79688,-1.20313 z m -4.23438,-2.07812 h 4.25 q -0.0937,-0.95313 -0.48437,-1.4375 -0.625,-0.75 -1.60938,-0.75 -0.875,0 -1.48437,0.59375 -0.60938,0.59375 -0.67188,1.59375 z m 7.18236,7.4375 v -10.5 h 1.17188 v 0.98437 q 0.42187,-0.57812 0.9375,-0.85937 0.51562,-0.29688 1.26562,-0.29688 0.96875,0 1.71875,0.5 0.75,0.5 1.125,1.42188 0.375,0.90625 0.375,1.98437 0,1.17188 -0.42187,2.10938 -0.40625,0.92187 -1.21875,1.42187 -0.79688,0.5 -1.67188,0.5 -0.64062,0 -1.15625,-0.26562 -0.51562,-0.28125 -0.84375,-0.6875 v 3.6875 z m 1.15625,-6.65625 q 0,1.45312 0.59375,2.15625 0.60938,0.70312 1.45313,0.70312 0.85937,0 1.46875,-0.71875 0.60937,-0.73437 0.60937,-2.25 0,-1.45312 -0.60937,-2.17187 -0.59375,-0.73438 -1.42188,-0.73438 -0.8125,0 -1.45312,0.78125 -0.64063,0.76563 -0.64063,2.23438 z m 6.97923,3.75 v -7.59375 h 1.156248 v 1.14062 q 0.45313,-0.79687 0.82813,-1.04687 0.375,-0.26563 0.8125,-0.26563 0.65625,0 1.32812,0.40625 l -0.4375,1.20313 q -0.46875,-0.28125 -0.95312,-0.28125 -0.42188,0 -0.76563,0.25 -0.32812,0.25 -0.46875,0.70312 -0.21875,0.6875 -0.21875,1.5 v 3.98438 z m 4.411898,-3.79688 q 0,-2.10937 1.17188,-3.125 0.98437,-0.84375 2.39062,-0.84375 1.57813,0 2.5625,1.03125 1,1.01563 1,2.82813 0,1.46875 -0.4375,2.3125 -0.4375,0.82812 -1.28125,1.29687 -0.84375,0.46875 -1.84375,0.46875 -1.59375,0 -2.57812,-1.01562 -0.98438,-1.03125 -0.98438,-2.95313 z m 1.32813,0 q 0,1.45313 0.625,2.1875 0.64062,0.71875 1.60937,0.71875 0.96875,0 1.59375,-0.71875 0.64063,-0.73437 0.64063,-2.23437 0,-1.40625 -0.64063,-2.125 -0.64062,-0.73438 -1.59375,-0.73438 -0.96875,0 -1.60937,0.71875 -0.625,0.71875 -0.625,2.1875 z m 12.26048,1.01563 1.26562,0.15625 q -0.20312,1.3125 -1.0625,2.0625 -0.84375,0.73437 -2.09375,0.73437 -1.5625,0 -2.51562,-1.01562 -0.9375,-1.03125 -0.9375,-2.92188 0,-1.23437 0.40625,-2.15625 0.40625,-0.92187 1.23437,-1.375 0.84375,-0.46875 1.8125,-0.46875 1.25,0 2.03125,0.625 0.78125,0.625 1.01563,1.76563 l -1.26563,0.20312 q -0.17187,-0.76562 -0.625,-1.15625 -0.45312,-0.39062 -1.09375,-0.39062 -0.98437,0 -1.59375,0.70312 -0.60937,0.70313 -0.60937,2.20313 0,1.53125 0.57812,2.23437 0.59375,0.6875 1.54688,0.6875 0.75,0 1.26562,-0.45312 0.51563,-0.46875 0.64063,-1.4375 z m 7.57812,0.32812 1.32813,0.17188 q -0.3125,1.17187 -1.17188,1.8125 -0.84375,0.64062 -2.17187,0.64062 -1.67188,0 -2.65625,-1.01562 -0.96875,-1.03125 -0.96875,-2.89063 0,-1.92187 0.98437,-2.96875 1,-1.0625 2.57813,-1.0625 1.51562,0 2.48437,1.03125 0.96875,1.03125 0.96875,2.92188 0,0.10937 -0.0156,0.34375 h -5.65625 q 0.0625,1.25 0.70312,1.92187 0.64063,0.65625 1.59375,0.65625 0.70313,0 1.20313,-0.35937 0.5,-0.375 0.79687,-1.20313 z m -4.23437,-2.07812 h 4.25 q -0.0937,-0.95313 -0.48438,-1.4375 -0.625,-0.75 -1.60937,-0.75 -0.875,0 -1.48438,0.59375 -0.60937,0.59375 -0.67187,1.59375 z m 6.66673,2.26562 1.26563,-0.20312 q 0.10937,0.76562 0.59375,1.17187 0.5,0.40625 1.375,0.40625 0.89062,0 1.3125,-0.35937 0.4375,-0.35938 0.4375,-0.84375 0,-0.4375 -0.375,-0.6875 -0.26563,-0.17188 -1.3125,-0.4375 -1.42188,-0.35938 -1.96875,-0.60938 -0.54688,-0.26562 -0.82813,-0.73437 -0.28125,-0.46875 -0.28125,-1.01563 0,-0.51562 0.21875,-0.9375 0.23438,-0.4375 0.64063,-0.73437 0.29687,-0.21875 0.8125,-0.35938 0.53125,-0.15625 1.125,-0.15625 0.89062,0 1.5625,0.26563 0.67187,0.25 1,0.6875 0.32812,0.4375 0.4375,1.17187 l -1.25,0.17188 q -0.0937,-0.57813 -0.5,-0.90625 -0.40625,-0.34375 -1.15625,-0.34375 -0.89063,0 -1.28125,0.29687 -0.375,0.29688 -0.375,0.6875 0,0.25 0.15625,0.45313 0.15625,0.20312 0.5,0.34375 0.1875,0.0781 1.14062,0.32812 1.35938,0.35938 1.89063,0.59375 0.54687,0.23438 0.85937,0.6875 0.3125,0.4375 0.3125,1.09375 0,0.64063 -0.375,1.21875 -0.375,0.5625 -1.09375,0.875 -0.70312,0.3125 -1.59375,0.3125 -1.48437,0 -2.26562,-0.60937 -0.76563,-0.625 -0.98438,-1.82813 z m 7.32813,0 1.26562,-0.20312 q 0.10938,0.76562 0.59375,1.17187 0.5,0.40625 1.375,0.40625 0.89063,0 1.3125,-0.35937 0.4375,-0.35938 0.4375,-0.84375 0,-0.4375 -0.375,-0.6875 -0.26562,-0.17188 -1.3125,-0.4375 -1.42187,-0.35938 -1.96875,-0.60938 -0.54687,-0.26562 -0.82812,-0.73437 -0.28125,-0.46875 -0.28125,-1.01563 0,-0.51562 0.21875,-0.9375 0.23437,-0.4375 0.64062,-0.73437 0.29688,-0.21875 0.8125,-0.35938 0.53125,-0.15625 1.125,-0.15625 0.89063,0 1.5625,0.26563 0.67188,0.25 1,0.6875 0.32813,0.4375 0.4375,1.17187 l -1.25,0.17188 q -0.0937,-0.57813 -0.5,-0.90625 -0.40625,-0.34375 -1.15625,-0.34375 -0.89062,0 -1.28125,0.29687 -0.375,0.29688 -0.375,0.6875 0,0.25 0.15625,0.45313 0.15625,0.20312 0.5,0.34375 0.1875,0.0781 1.14063,0.32812 1.35937,0.35938 1.89062,0.59375 0.54688,0.23438 0.85938,0.6875 0.3125,0.4375 0.3125,1.09375 0,0.64063 -0.375,1.21875 -0.375,0.5625 -1.09375,0.875 -0.70313,0.3125 -1.59375,0.3125 -1.48438,0 -2.26563,-0.60937 -0.76562,-0.625 -0.98437,-1.82813 z"
     fill-rule="nonzero"
     id="path68" />
  <path
     fill="#e6b8af"
     d="m 11.9316,188.06691 v 0 c 0,-2.00623 1.62638,-3.63261 3.63262,-3.63261 h 179.15994 c 0.96344,0 1.88742,0.38272 2.56867,1.06398 0.68124,0.68124 1.06396,1.60519 1.06396,2.56863 v 14.53003 c 0,2.00625 -1.62637,3.63263 -3.63263,3.63263 H 15.56422 c -2.00624,0 -3.63262,-1.62637 -3.63262,-3.63263 z"
     fill-rule="evenodd"
     id="path70" />
  <path
     stroke="#ea4335"
     stroke-width="1"
     stroke-linejoin="round"
     stroke-linecap="butt"
     d="m 11.9316,188.06691 v 0 c 0,-2.00623 1.62638,-3.63261 3.63262,-3.63261 h 179.15994 c 0.96344,0 1.88742,0.38272 2.56867,1.06398 0.68124,0.68124 1.06396,1.60519 1.06396,2.56863 v 14.53003 c 0,2.00625 -1.62637,3.63263 -3.63263,3.63263 H 15.56422 c -2.00624,0 -3.63262,-1.62637 -3.63262,-3.63263 z"
     fill-rule="evenodd"
     id="path72" />
  <path
     fill="#000000"
     d="m 89.373752,200.41193 h -1.20313 v -10.48437 h 1.29688 v 3.73437 q 0.8125,-1.01562 2.07812,-1.01562 0.70313,0 1.32813,0.28125 0.625,0.28125 1.03125,0.79687 0.40625,0.5 0.625,1.23438 0.23437,0.71875 0.23437,1.53125 0,1.96875 -0.96875,3.03125 -0.95312,1.0625 -2.3125,1.0625 -1.34375,0 -2.10937,-1.125 z m -0.0156,-3.85937 q 0,1.375 0.375,1.98437 0.60938,0.98438 1.64063,0.98438 0.84375,0 1.45312,-0.73438 0.625,-0.73437 0.625,-2.1875 0,-1.48437 -0.59375,-2.1875 -0.59375,-0.71875 -1.42187,-0.71875 -0.84375,0 -1.46875,0.73438 -0.60938,0.73437 -0.60938,2.125 z m 11.932358,2.92187 q -0.71875,0.60938 -1.374998,0.85938 -0.65625,0.25 -1.42187,0.25 -1.25,0 -1.92188,-0.60938 -0.67187,-0.60937 -0.67187,-1.5625 0,-0.5625 0.25,-1.01562 0.25,-0.46875 0.65625,-0.75 0.42187,-0.28125 0.9375,-0.42188 0.375,-0.0937 1.14062,-0.1875 1.562498,-0.1875 2.296878,-0.45312 0.0156,-0.26563 0.0156,-0.32813 0,-0.79687 -0.375,-1.10937 -0.48437,-0.4375 -1.453118,-0.4375 -0.92188,0 -1.35938,0.32812 -0.42187,0.3125 -0.625,1.10938 l -1.26562,-0.17188 q 0.17187,-0.79687 0.5625,-1.29687 0.39062,-0.5 1.14062,-0.76563 0.75,-0.26562 1.71875,-0.26562 0.984378,0 1.593748,0.23437 0.60938,0.21875 0.89063,0.5625 0.28125,0.34375 0.40625,0.875 0.0625,0.32813 0.0625,1.1875 v 1.71875 q 0,1.79688 0.0781,2.28125 0.0781,0.46875 0.32813,0.90625 h -1.34375 q -0.20313,-0.40625 -0.26563,-0.9375 z m -0.10937,-2.875 q -0.70313,0.28125 -2.093748,0.48438 -0.79688,0.10937 -1.125,0.26562 -0.32813,0.14063 -0.51563,0.42188 -0.17187,0.26562 -0.17187,0.59375 0,0.51562 0.39062,0.85937 0.39063,0.34375 1.14063,0.34375 0.73437,0 1.312498,-0.3125 0.59375,-0.32812 0.85937,-0.89062 0.20313,-0.4375 0.20313,-1.29688 z m 6.11986,2.65625 0.1875,1.14063 q -0.54688,0.10937 -0.98438,0.10937 -0.6875,0 -1.07812,-0.21875 -0.39063,-0.21875 -0.54688,-0.57812 -0.15625,-0.35938 -0.15625,-1.51563 v -4.375 h -0.95312 v -1 h 0.95312 v -1.89062 l 1.28125,-0.76563 v 2.65625 h 1.29688 v 1 h -1.29688 v 4.4375 q 0,0.54688 0.0625,0.71875 0.0781,0.15625 0.21875,0.25 0.15625,0.0781 0.45313,0.0781 0.20312,0 0.5625,-0.0469 z m 6.2126,-1.625 1.26562,0.15625 q -0.20312,1.3125 -1.0625,2.0625 -0.84375,0.73438 -2.09375,0.73438 -1.5625,0 -2.51562,-1.01563 -0.9375,-1.03125 -0.9375,-2.92187 0,-1.23438 0.40625,-2.15625 0.40625,-0.92188 1.23437,-1.375 0.84375,-0.46875 1.8125,-0.46875 1.25,0 2.03125,0.625 0.78125,0.625 1.01563,1.76562 l -1.26563,0.20313 q -0.17187,-0.76563 -0.625,-1.15625 -0.45312,-0.39063 -1.09375,-0.39063 -0.98437,0 -1.59375,0.70313 -0.60937,0.70312 -0.60937,2.20312 0,1.53125 0.57812,2.23438 0.59375,0.6875 1.54688,0.6875 0.75,0 1.26562,-0.45313 0.51563,-0.46875 0.64063,-1.4375 z m 2.375,2.78125 v -10.48437 h 1.28125 v 3.75 q 0.90625,-1.03125 2.28125,-1.03125 0.84375,0 1.46875,0.32812 0.625,0.32813 0.89062,0.92188 0.26563,0.57812 0.26563,1.70312 v 4.8125 h -1.28125 v -4.8125 q 0,-0.96875 -0.42188,-1.40625 -0.42187,-0.4375 -1.1875,-0.4375 -0.57812,0 -1.07812,0.29688 -0.5,0.29687 -0.71875,0.8125 -0.21875,0.5 -0.21875,1.39062 v 4.15625 z"
     fill-rule="nonzero"
     id="path74" />
  <path
     fill="#000000"
     fill-opacity="0"
     d="m 105.14419,53.652135 c 0,4.08727 0.0157,6.13123 0.0315,8.17453 0.0157,2.04331 0.0315,4.08597 0.0315,8.17192"
     fill-rule="evenodd"
     id="path76" />
  <path
     stroke="#666666"
     stroke-width="1"
     stroke-linejoin="round"
     stroke-linecap="butt"
     d="m 105.14419,53.652135 c 0,4.08727 0.0157,6.13123 0.0315,8.17453 0.008,1.02167 0.0157,2.04316 0.0216,3.31998 l 0.005,1.42487"
     fill-rule="evenodd"
     id="path78" />
  <path
     fill="#666666"
     stroke="#666666"
     stroke-width="1"
     stroke-linecap="butt"
     d="m 105.2021,66.571515 -1.12625,-1.12291 1.12916,3.08809 1.12,-3.09143 z"
     fill-rule="evenodd"
     id="path80" />
  <path
     fill="#000000"
     fill-opacity="0"
     d="m 105.14419,91.796485 c 0,4.08728 0.0157,6.13124 0.0315,8.17454 0.0157,2.043305 0.0315,4.085955 0.0315,8.171935"
     fill-rule="evenodd"
     id="path82" />
  <path
     stroke="#666666"
     stroke-width="1"
     stroke-linejoin="round"
     stroke-linecap="butt"
     d="m 105.14419,91.796485 c 0,4.08728 0.0157,6.13124 0.0315,8.17454 0.008,1.021655 0.0157,2.043135 0.0216,3.319975 l 0.005,1.42486"
     fill-rule="evenodd"
     id="path84" />
  <path
     fill="#666666"
     stroke="#666666"
     stroke-width="1"
     stroke-linecap="butt"
     d="m 105.2021,104.71586 -1.12625,-1.12291 1.12916,3.0881 1.12,-3.09144 z"
     fill-rule="evenodd"
     id="path86" />
  <path
     fill="#000000"
     fill-opacity="0"
     d="m 105.14419,129.94085 c 0,4.08726 0.0157,6.13123 0.0315,8.17453 0.0157,2.0433 0.0315,4.08597 0.0315,8.17192"
     fill-rule="evenodd"
     id="path88" />
  <path
     stroke="#666666"
     stroke-width="1"
     stroke-linejoin="round"
     stroke-linecap="butt"
     d="m 105.14419,129.94085 c 0,4.08726 0.0157,6.13123 0.0315,8.17454 0.008,1.02166 0.0157,2.04314 0.0216,3.31998 l 0.005,1.42486"
     fill-rule="evenodd"
     id="path90" />
  <path
     fill="#666666"
     stroke="#666666"
     stroke-width="1"
     stroke-linecap="butt"
     d="m 105.2021,142.86023 -1.12625,-1.12291 1.12916,3.08809 1.12,-3.09143 z"
     fill-rule="evenodd"
     id="path92" />
  <path
     fill="#000000"
     fill-opacity="0"
     d="m 105.14419,168.08519 c 0,4.08728 0.0157,6.13124 0.0315,8.17454 0.0157,2.04331 0.0315,4.08596 0.0315,8.17193"
     fill-rule="evenodd"
     id="path94" />
  <path
     stroke="#666666"
     stroke-width="1"
     stroke-linejoin="round"
     stroke-linecap="butt"
     d="m 105.14419,168.08519 c 0,4.08728 0.0157,6.13124 0.0315,8.17454 0.008,1.02166 0.0157,2.04316 0.0216,3.31998 l 0.005,1.42488"
     fill-rule="evenodd"
     id="path96" />
  <path
     fill="#666666"
     stroke="#666666"
     stroke-width="1"
     stroke-linecap="butt"
     d="m 105.2021,181.00458 -1.12625,-1.12292 1.12916,3.0881 1.12,-3.09143 z"
     fill-rule="evenodd"
     id="path98" />
  <path
     fill="#d9ead3"
     d="m 497.22032,51.489485 v 0 c 0,-2.006245 1.6264,-3.632625 3.63263,-3.632625 h 179.15997 c 0.96338,0 1.88739,0.38272 2.5686,1.06398 0.68128,0.68124 1.06397,1.60521 1.06397,2.568645 v 14.53002 c 0,2.00624 -1.62635,3.63263 -3.63257,3.63263 H 500.85295 c -2.00623,0 -3.63263,-1.62639 -3.63263,-3.63263 z"
     fill-rule="evenodd"
     id="path100" />
  <path
     stroke="#34a853"
     stroke-width="1"
     stroke-linejoin="round"
     stroke-linecap="butt"
     d="m 497.22032,51.489485 v 0 c 0,-2.006245 1.6264,-3.632625 3.63263,-3.632625 h 179.15997 c 0.96338,0 1.88739,0.38272 2.5686,1.06398 0.68128,0.68124 1.06397,1.60521 1.06397,2.568645 v 14.53002 c 0,2.00624 -1.62635,3.63263 -3.63257,3.63263 H 500.85295 c -2.00623,0 -3.63263,-1.62639 -3.63263,-3.63263 z"
     fill-rule="evenodd"
     id="path102" />
  <path
     fill="#000000"
     d="m 542.41594,61.568875 1.26563,-0.20313 q 0.10937,0.76563 0.59375,1.17188 0.5,0.40625 1.375,0.40625 0.89062,0 1.3125,-0.35938 0.4375,-0.35937 0.4375,-0.84375 0,-0.4375 -0.375,-0.6875 -0.26563,-0.17187 -1.3125,-0.4375 -1.42188,-0.35937 -1.96875,-0.60937 -0.54688,-0.26563 -0.82813,-0.73438 -0.28125,-0.46875 -0.28125,-1.01562 0,-0.51563 0.21875,-0.9375 0.23438,-0.4375 0.64063,-0.73437 0.29687,-0.21875 0.8125,-0.35938 0.53125,-0.15625 1.125,-0.15625 0.89062,0 1.5625,0.26563 0.67187,0.25 1,0.6875 0.32812,0.43749 0.4375,1.17187 l -1.25,0.17187 q -0.0937,-0.57812 -0.5,-0.90625 -0.40625,-0.34374 -1.15625,-0.34374 -0.89063,0 -1.28125,0.29687 -0.375,0.29687 -0.375,0.6875 0,0.25 0.15625,0.45312 0.15625,0.20313 0.5,0.34375 0.1875,0.0781 1.14062,0.32813 1.35938,0.35937 1.89063,0.59375 0.54687,0.23437 0.85937,0.6875 0.3125,0.4375 0.3125,1.09375 0,0.64062 -0.375,1.21875 -0.375,0.5625 -1.09375,0.875 -0.70312,0.3125 -1.59375,0.3125 -1.48437,0 -2.26562,-0.60938 -0.76563,-0.625 -0.98438,-1.82812 z m 12.79688,1.32812 q -0.71875,0.60938 -1.375,0.85938 -0.65625,0.25 -1.42188,0.25 -1.25,0 -1.92187,-0.60938 -0.67188,-0.60937 -0.67188,-1.5625 0,-0.5625 0.25,-1.01562 0.25,-0.46875 0.65625,-0.75 0.42188,-0.28125 0.9375,-0.42188 0.375,-0.0937 1.14063,-0.1875 1.5625,-0.1875 2.29687,-0.45312 0.0156,-0.26563 0.0156,-0.32813 0,-0.79687 -0.375,-1.10937 -0.48438,-0.4375 -1.45313,-0.4375 -0.92187,0 -1.35937,0.32812 -0.42188,0.3125 -0.625,1.10938 l -1.26563,-0.17188 q 0.17188,-0.79687 0.5625,-1.29687 0.39063,-0.5 1.14063,-0.76562 0.75,-0.26563 1.71875,-0.26563 0.98437,0 1.59375,0.23438 0.60937,0.21875 0.89062,0.5625 0.28125,0.34375 0.40625,0.87499 0.0625,0.32813 0.0625,1.1875 v 1.71875 q 0,1.79688 0.0781,2.28125 0.0781,0.46875 0.32812,0.90625 h -1.34375 q -0.20312,-0.40625 -0.26562,-0.9375 z m -0.10938,-2.875 q -0.70312,0.28125 -2.09375,0.48438 -0.79687,0.10937 -1.125,0.26562 -0.32812,0.14063 -0.51562,0.42188 -0.17188,0.26562 -0.17188,0.59375 0,0.51562 0.39063,0.85937 0.39062,0.34375 1.14062,0.34375 0.73438,0 1.3125,-0.3125 0.59375,-0.32812 0.85938,-0.89062 0.20312,-0.4375 0.20312,-1.29688 z m 3.30737,3.8125 v -7.59374 h 1.15625 v 1.06249 q 0.34375,-0.56249 0.9375,-0.89062 0.60938,-0.34375 1.35938,-0.34375 0.84375,0 1.375,0.34375 0.54687,0.34375 0.76562,0.98437 0.90625,-1.32812 2.35938,-1.32812 1.125,0 1.73437,0.625 0.60938,0.625 0.60938,1.92187 v 5.21875 h -1.28125 v -4.78125 q 0,-0.78125 -0.125,-1.10937 -0.125,-0.34375 -0.45313,-0.54688 -0.32812,-0.21874 -0.78125,-0.21874 -0.79687,0 -1.32812,0.53124 -0.53125,0.53125 -0.53125,1.70313 v 4.42187 h -1.28125 v -4.9375 q 0,-0.85937 -0.3125,-1.28125 -0.3125,-0.43749 -1.03125,-0.43749 -0.54688,0 -1.01563,0.29687 -0.45312,0.28125 -0.67187,0.82812 -0.20313,0.54688 -0.20313,1.59375 v 3.9375 z m 12.20874,2.90625 v -10.49999 h 1.17188 v 0.98437 q 0.42187,-0.57812 0.9375,-0.85937 0.51562,-0.29688 1.26562,-0.29688 0.96875,0 1.71875,0.5 0.75,0.5 1.125,1.42187 0.375,0.90625 0.375,1.98438 0,1.17187 -0.42187,2.10937 -0.40625,0.92188 -1.21875,1.42188 -0.79688,0.5 -1.67188,0.5 -0.64062,0 -1.15625,-0.26563 -0.51562,-0.28125 -0.84375,-0.6875 v 3.6875 z m 1.15625,-6.65625 q 0,1.45313 0.59375,2.15625 0.60938,0.70313 1.45313,0.70313 0.85937,0 1.46875,-0.71875 0.60937,-0.73438 0.60937,-2.25 0,-1.45313 -0.60937,-2.17188 -0.59375,-0.73437 -1.42188,-0.73437 -0.8125,0 -1.45312,0.78125 -0.64063,0.76562 -0.64063,2.23437 z m 6.96363,3.75 v -10.48437 h 1.28125 v 10.48437 z m 8.49054,-2.45312 1.32812,0.17187 q -0.3125,1.17188 -1.17187,1.8125 -0.84375,0.64063 -2.17188,0.64063 -1.67187,0 -2.65625,-1.01563 -0.96875,-1.03125 -0.96875,-2.89062 0,-1.92188 0.98438,-2.96875 1,-1.0625 2.57812,-1.0625 1.51563,0 2.48438,1.03125 0.96875,1.03125 0.96875,2.92187 0,0.10938 -0.0156,0.34375 h -5.65625 q 0.0625,1.25 0.70313,1.92188 0.64062,0.65625 1.59375,0.65625 0.70312,0 1.20312,-0.35938 0.5,-0.375 0.79688,-1.20312 z m -4.23438,-2.07813 h 4.25 q -0.0937,-0.95312 -0.48437,-1.4375 -0.625,-0.74999 -1.60938,-0.74999 -0.875,0 -1.48437,0.59374 -0.60938,0.59375 -0.67188,1.59375 z m 11.25433,-4.48437 v -1.46875 h 1.29688 v 1.46875 z m 0,9.01562 v -7.59374 h 1.29688 v 7.59374 z m 3.25611,0 v -7.59374 h 1.15625 v 1.07812 q 0.84375,-1.25 2.42187,-1.25 0.6875,0 1.26563,0.25 0.57812,0.23438 0.85937,0.64063 0.28125,0.40624 0.40625,0.95312 0.0625,0.35937 0.0625,1.25 v 4.67187 h -1.28125 v -4.625 q 0,-0.78125 -0.15625,-1.17187 -0.15625,-0.39063 -0.54687,-0.625 -0.375,-0.23437 -0.89063,-0.23437 -0.8125,0 -1.42187,0.53124 -0.59375,0.51563 -0.59375,1.96875 v 4.15625 z m 13.073,0 v -0.95312 q -0.71875,1.125 -2.125,1.125 -0.90625,0 -1.67188,-0.5 -0.75,-0.5 -1.17187,-1.39063 -0.42188,-0.90625 -0.42188,-2.07812 0,-1.14063 0.375,-2.0625 0.39063,-0.92187 1.14063,-1.40625 0.76562,-0.5 1.70312,-0.5 0.6875,0 1.21875,0.29688 0.53125,0.28125 0.875,0.73437 v -3.75 h 1.28125 v 10.48437 z m -4.0625,-3.79687 q 0,1.46875 0.60937,2.1875 0.625,0.71875 1.45313,0.71875 0.84375,0 1.4375,-0.6875 0.59375,-0.6875 0.59375,-2.10938 0,-1.5625 -0.60938,-2.28125 -0.59375,-0.73437 -1.48437,-0.73437 -0.84375,0 -1.42188,0.70312 -0.57812,0.70313 -0.57812,2.20313 z m 7.29174,-5.21875 v -1.46875 h 1.29688 v 1.46875 z m 0,9.01562 v -7.59374 h 1.29688 v 7.59374 z m 8.20929,-2.78125 1.26563,0.15625 q -0.20313,1.3125 -1.0625,2.0625 -0.84375,0.73438 -2.09375,0.73438 -1.5625,0 -2.51563,-1.01563 -0.9375,-1.03125 -0.9375,-2.92187 0,-1.23438 0.40625,-2.15625 0.40625,-0.92187 1.23438,-1.375 0.84375,-0.46875 1.8125,-0.46875 1.25,0 2.03125,0.625 0.78125,0.625 1.01562,1.76562 l -1.26562,0.20313 q -0.17188,-0.76563 -0.625,-1.15625 -0.45313,-0.39062 -1.09375,-0.39062 -0.98438,0 -1.59375,0.70312 -0.60938,0.70312 -0.60938,2.20312 0,1.53125 0.57813,2.23438 0.59375,0.6875 1.54687,0.6875 0.75,0 1.26563,-0.45313 0.51562,-0.46875 0.64062,-1.4375 z m 7.57813,0.32813 1.32812,0.17187 q -0.3125,1.17188 -1.17187,1.8125 -0.84375,0.64063 -2.17188,0.64063 -1.67187,0 -2.65625,-1.01563 -0.96875,-1.03125 -0.96875,-2.89062 0,-1.92188 0.98438,-2.96875 1,-1.0625 2.57812,-1.0625 1.51563,0 2.48438,1.03125 0.96875,1.03125 0.96875,2.92187 0,0.10938 -0.0156,0.34375 h -5.65625 q 0.0625,1.25 0.70313,1.92188 0.64062,0.65625 1.59375,0.65625 0.70312,0 1.20312,-0.35938 0.5,-0.375 0.79688,-1.20312 z m -4.23438,-2.07813 h 4.25 q -0.0937,-0.95312 -0.48437,-1.4375 -0.625,-0.74999 -1.60938,-0.74999 -0.875,0 -1.48437,0.59374 -0.60938,0.59375 -0.67188,1.59375 z m 6.66669,2.26563 1.26563,-0.20313 q 0.10937,0.76563 0.59375,1.17188 0.5,0.40625 1.375,0.40625 0.89062,0 1.3125,-0.35938 0.4375,-0.35937 0.4375,-0.84375 0,-0.4375 -0.375,-0.6875 -0.26563,-0.17187 -1.3125,-0.4375 -1.42188,-0.35937 -1.96875,-0.60937 -0.54688,-0.26563 -0.82813,-0.73438 -0.28125,-0.46875 -0.28125,-1.01562 0,-0.51563 0.21875,-0.9375 0.23438,-0.4375 0.64063,-0.73437 0.29687,-0.21875 0.8125,-0.35938 0.53125,-0.15625 1.125,-0.15625 0.89062,0 1.5625,0.26563 0.67187,0.25 1,0.6875 0.32812,0.43749 0.4375,1.17187 l -1.25,0.17187 q -0.0937,-0.57812 -0.5,-0.90625 -0.40625,-0.34374 -1.15625,-0.34374 -0.89063,0 -1.28125,0.29687 -0.375,0.29687 -0.375,0.6875 0,0.25 0.15625,0.45312 0.15625,0.20313 0.5,0.34375 0.1875,0.0781 1.14062,0.32813 1.35938,0.35937 1.89063,0.59375 0.54687,0.23437 0.85937,0.6875 0.3125,0.4375 0.3125,1.09375 0,0.64062 -0.375,1.21875 -0.375,0.5625 -1.09375,0.875 -0.70312,0.3125 -1.59375,0.3125 -1.48437,0 -2.26562,-0.60938 -0.76563,-0.625 -0.98438,-1.82812 z"
     fill-rule="nonzero"
     id="path104" />
  <path
     fill="#d9ead3"
     d="m 497.22032,89.633825 v 0 c 0,-2.00623 1.6264,-3.63261 3.63263,-3.63261 h 179.15997 c 0.96338,0 1.88739,0.38272 2.5686,1.06396 0.68128,0.68126 1.06397,1.60523 1.06397,2.56865 v 14.530045 c 0,2.00625 -1.62635,3.63262 -3.63257,3.63262 H 500.85295 c -2.00623,0 -3.63263,-1.62637 -3.63263,-3.63262 z"
     fill-rule="evenodd"
     id="path106" />
  <path
     stroke="#34a853"
     stroke-width="1"
     stroke-linejoin="round"
     stroke-linecap="butt"
     d="m 497.22032,89.633825 v 0 c 0,-2.00623 1.6264,-3.63261 3.63263,-3.63261 h 179.15997 c 0.96338,0 1.88739,0.38272 2.5686,1.06396 0.68128,0.68126 1.06397,1.60523 1.06397,2.56865 v 14.530045 c 0,2.00625 -1.62635,3.63262 -3.63257,3.63262 H 500.85295 c -2.00623,0 -3.63263,-1.62637 -3.63263,-3.63262 z"
     fill-rule="evenodd"
     id="path108" />
  <path
     fill="#000000"
     d="m 553.50023,101.97887 v -7.593755 h 1.15625 v 1.14062 q 0.45313,-0.79687 0.82813,-1.04687 0.375,-0.26563 0.8125,-0.26563 0.65625,0 1.32812,0.40625 l -0.4375,1.20313 q -0.46875,-0.28125 -0.95312,-0.28125 -0.42188,0 -0.76563,0.25 -0.32812,0.25 -0.46875,0.70312 -0.21875,0.6875 -0.21875,1.5 v 3.984385 z m 10.09937,-2.453135 1.32812,0.17188 q -0.3125,1.171875 -1.17187,1.812505 -0.84375,0.64062 -2.17188,0.64062 -1.67187,0 -2.65625,-1.01562 -0.96875,-1.03125 -0.96875,-2.890635 0,-1.92187 0.98438,-2.96875 1,-1.0625 2.57812,-1.0625 1.51563,0 2.48438,1.03125 0.96875,1.03125 0.96875,2.92188 0,0.10937 -0.0156,0.34375 h -5.65625 q 0.0625,1.25 0.70313,1.921875 0.64062,0.65625 1.59375,0.65625 0.70312,0 1.20312,-0.35937 0.5,-0.375 0.79688,-1.203135 z m -4.23438,-2.07812 h 4.25 q -0.0937,-0.95313 -0.48437,-1.4375 -0.625,-0.75 -1.60938,-0.75 -0.875,0 -1.48437,0.59375 -0.60938,0.59375 -0.67188,1.59375 z m 12.1355,3.593755 q -0.71875,0.60937 -1.375,0.85937 -0.65625,0.25 -1.42188,0.25 -1.25,0 -1.92187,-0.60937 -0.67188,-0.60938 -0.67188,-1.562505 0,-0.5625 0.25,-1.01563 0.25,-0.46875 0.65625,-0.75 0.42188,-0.28125 0.9375,-0.42187 0.375,-0.0937 1.14063,-0.1875 1.5625,-0.1875 2.29687,-0.45313 0.0156,-0.26562 0.0156,-0.32812 0,-0.79688 -0.375,-1.10938 -0.48438,-0.4375 -1.45313,-0.4375 -0.92187,0 -1.35937,0.32813 -0.42188,0.3125 -0.625,1.10937 l -1.26563,-0.17187 q 0.17188,-0.79688 0.5625,-1.29688 0.39063,-0.5 1.14063,-0.76562 0.75,-0.26563 1.71875,-0.26563 0.98437,0 1.59375,0.23438 0.60937,0.21875 0.89062,0.5625 0.28125,0.34375 0.40625,0.875 0.0625,0.32812 0.0625,1.1875 v 1.71875 q 0,1.796875 0.0781,2.281255 0.0781,0.46875 0.32812,0.90625 h -1.34375 q -0.20312,-0.40625 -0.26562,-0.9375 z m -0.10938,-2.875005 q -0.70312,0.28125 -2.09375,0.48437 -0.79687,0.10938 -1.125,0.26563 -0.32812,0.14062 -0.51562,0.42187 -0.17188,0.26563 -0.17188,0.59375 0,0.515635 0.39063,0.859385 0.39062,0.34375 1.14062,0.34375 0.73438,0 1.3125,-0.3125 0.59375,-0.32813 0.85938,-0.890635 0.20312,-0.4375 0.20312,-1.29687 z m 8.22925,3.812505 v -0.95313 q -0.71875,1.125 -2.125,1.125 -0.90625,0 -1.67187,-0.5 -0.75,-0.5 -1.17188,-1.39062 -0.42187,-0.906255 -0.42187,-2.078135 0,-1.14062 0.375,-2.0625 0.39062,-0.92187 1.14062,-1.40625 0.76563,-0.5 1.70313,-0.5 0.6875,0 1.21875,0.29688 0.53125,0.28125 0.875,0.73437 v -3.75 h 1.28125 v 10.484385 z m -4.0625,-3.796885 q 0,1.46875 0.60938,2.187505 0.625,0.71875 1.45312,0.71875 0.84375,0 1.4375,-0.6875 0.59375,-0.687505 0.59375,-2.109375 0,-1.5625 -0.60937,-2.28125 -0.59375,-0.73438 -1.48438,-0.73438 -0.84375,0 -1.42187,0.70313 -0.57813,0.70312 -0.57813,2.20312 z m 13.47308,3.796885 -2.89062,-7.593755 h 1.35937 l 1.625,4.54687 q 0.26563,0.73438 0.5,1.531255 0.15625,-0.609375 0.46875,-1.453125 l 1.6875,-4.625 h 1.32813 l -2.875,7.593755 z m 10.17188,-0.9375 q -0.71875,0.60937 -1.375,0.85937 -0.65625,0.25 -1.42188,0.25 -1.25,0 -1.92187,-0.60937 -0.67188,-0.60938 -0.67188,-1.562505 0,-0.5625 0.25,-1.01563 0.25,-0.46875 0.65625,-0.75 0.42188,-0.28125 0.9375,-0.42187 0.375,-0.0937 1.14063,-0.1875 1.5625,-0.1875 2.29687,-0.45313 0.0156,-0.26562 0.0156,-0.32812 0,-0.79688 -0.375,-1.10938 -0.48438,-0.4375 -1.45313,-0.4375 -0.92187,0 -1.35937,0.32813 -0.42188,0.3125 -0.625,1.10937 l -1.26563,-0.17187 q 0.17188,-0.79688 0.5625,-1.29688 0.39063,-0.5 1.14063,-0.76562 0.75,-0.26563 1.71875,-0.26563 0.98437,0 1.59375,0.23438 0.60937,0.21875 0.89062,0.5625 0.28125,0.34375 0.40625,0.875 0.0625,0.32812 0.0625,1.1875 v 1.71875 q 0,1.796875 0.0781,2.281255 0.0781,0.46875 0.32812,0.90625 h -1.34375 q -0.20312,-0.40625 -0.26562,-0.9375 z m -0.10938,-2.875005 q -0.70312,0.28125 -2.09375,0.48437 -0.79687,0.10938 -1.125,0.26563 -0.32812,0.14062 -0.51562,0.42187 -0.17188,0.26563 -0.17188,0.59375 0,0.515635 0.39063,0.859385 0.39062,0.34375 1.14062,0.34375 0.73438,0 1.3125,-0.3125 0.59375,-0.32813 0.85938,-0.890635 0.20312,-0.4375 0.20312,-1.29687 z m 3.27607,3.812505 V 91.494485 h 1.28125 v 10.484375 z m 8.27179,0 v -1.10938 q -0.89063,1.28125 -2.42188,1.28125 -0.67187,0 -1.25,-0.25 -0.57812,-0.26562 -0.875,-0.65625 -0.28125,-0.39062 -0.39062,-0.95312 -0.0781,-0.375005 -0.0781,-1.203135 v -4.70312 h 1.28125 v 4.20312 q 0,1.01563 0.0781,1.35938 0.125,0.515625 0.51562,0.812505 0.40625,0.28125 0.98438,0.28125 0.57812,0 1.07812,-0.29688 0.51563,-0.29687 0.71875,-0.812505 0.21875,-0.51562 0.21875,-1.48437 v -4.0625 h 1.28125 v 7.593755 z m 8.36987,-2.453135 1.32812,0.17188 q -0.3125,1.171875 -1.17187,1.812505 -0.84375,0.64062 -2.17188,0.64062 -1.67187,0 -2.65625,-1.01562 -0.96875,-1.03125 -0.96875,-2.890635 0,-1.92187 0.98438,-2.96875 1,-1.0625 2.57812,-1.0625 1.51563,0 2.48438,1.03125 0.96875,1.03125 0.96875,2.92188 0,0.10937 -0.0156,0.34375 h -5.65625 q 0.0625,1.25 0.70313,1.921875 0.64062,0.65625 1.59375,0.65625 0.70312,0 1.20312,-0.35937 0.5,-0.375 0.79688,-1.203135 z m -4.23438,-2.07812 h 4.25 q -0.0937,-0.95313 -0.48437,-1.4375 -0.625,-0.75 -1.60938,-0.75 -0.875,0 -1.48437,0.59375 -0.60938,0.59375 -0.67188,1.59375 z m 6.66675,2.26562 1.26563,-0.20312 q 0.10937,0.765625 0.59375,1.171875 0.5,0.40625 1.375,0.40625 0.89062,0 1.3125,-0.35937 0.4375,-0.35938 0.4375,-0.843755 0,-0.4375 -0.375,-0.6875 -0.26563,-0.17188 -1.3125,-0.4375 -1.42188,-0.35938 -1.96875,-0.60938 -0.54688,-0.26562 -0.82813,-0.73437 -0.28125,-0.46875 -0.28125,-1.01563 0,-0.51562 0.21875,-0.9375 0.23438,-0.4375 0.64063,-0.73437 0.29687,-0.21875 0.8125,-0.35938 0.53125,-0.15625 1.125,-0.15625 0.89062,0 1.5625,0.26563 0.67187,0.25 1,0.6875 0.32812,0.4375 0.4375,1.17187 l -1.25,0.17188 q -0.0937,-0.57813 -0.5,-0.90625 -0.40625,-0.34375 -1.15625,-0.34375 -0.89063,0 -1.28125,0.29687 -0.375,0.29688 -0.375,0.6875 0,0.25 0.15625,0.45313 0.15625,0.20312 0.5,0.34375 0.1875,0.0781 1.14062,0.32812 1.35938,0.35938 1.89063,0.59375 0.54687,0.23438 0.85937,0.6875 0.3125,0.4375 0.3125,1.09375 0,0.640635 -0.375,1.218755 -0.375,0.5625 -1.09375,0.875 -0.70312,0.3125 -1.59375,0.3125 -1.48437,0 -2.26562,-0.60937 -0.76563,-0.625 -0.98438,-1.828135 z"
     fill-rule="nonzero"
     id="path110" />
  <path
     fill="#d9ead3"
     d="m 497.22032,165.92255 v 0 c 0,-2.00624 1.6264,-3.63263 3.63263,-3.63263 h 179.15997 c 0.96338,0 1.88739,0.38272 2.5686,1.06398 0.68128,0.68124 1.06397,1.60521 1.06397,2.56865 v 14.53003 c 0,2.00624 -1.62635,3.63261 -3.63257,3.63261 H 500.85295 c -2.00623,0 -3.63263,-1.62637 -3.63263,-3.63261 z"
     fill-rule="evenodd"
     id="path112" />
  <path
     stroke="#34a853"
     stroke-width="1"
     stroke-linejoin="round"
     stroke-linecap="butt"
     d="m 497.22032,165.92255 v 0 c 0,-2.00624 1.6264,-3.63263 3.63263,-3.63263 h 179.15997 c 0.96338,0 1.88739,0.38272 2.5686,1.06398 0.68128,0.68124 1.06397,1.60521 1.06397,2.56865 v 14.53003 c 0,2.00624 -1.62635,3.63261 -3.63257,3.63261 H 500.85295 c -2.00623,0 -3.63263,-1.62637 -3.63263,-3.63261 z"
     fill-rule="evenodd"
     id="path114" />
  <path
     fill="#000000"
     d="m 574.66248,178.26757 h -1.20312 v -10.48438 h 1.29687 v 3.73438 q 0.8125,-1.01563 2.07813,-1.01563 0.70312,0 1.32812,0.28125 0.625,0.28125 1.03125,0.79688 0.40625,0.5 0.625,1.23437 0.23438,0.71875 0.23438,1.53125 0,1.96875 -0.96875,3.03125 -0.95313,1.0625 -2.3125,1.0625 -1.34375,0 -2.10938,-1.125 z m -0.0156,-3.85938 q 0,1.375 0.375,1.98438 0.60937,0.98437 1.64062,0.98437 0.84375,0 1.45313,-0.73437 0.625,-0.73438 0.625,-2.1875 0,-1.48438 -0.59375,-2.1875 -0.59375,-0.71875 -1.42188,-0.71875 -0.84375,0 -1.46875,0.73437 -0.60937,0.73438 -0.60937,2.125 z m 11.93237,2.92188 q -0.71875,0.60937 -1.375,0.85937 -0.65625,0.25 -1.42188,0.25 -1.25,0 -1.92187,-0.60937 -0.67188,-0.60938 -0.67188,-1.5625 0,-0.5625 0.25,-1.01563 0.25,-0.46875 0.65625,-0.75 0.42188,-0.28125 0.9375,-0.42187 0.375,-0.0937 1.14063,-0.1875 1.5625,-0.1875 2.29687,-0.45313 0.0156,-0.26562 0.0156,-0.32812 0,-0.79688 -0.375,-1.10938 -0.48438,-0.4375 -1.45313,-0.4375 -0.92187,0 -1.35937,0.32813 -0.42188,0.3125 -0.625,1.10937 l -1.26563,-0.17187 q 0.17188,-0.79688 0.5625,-1.29688 0.39063,-0.5 1.14063,-0.76562 0.75,-0.26563 1.71875,-0.26563 0.98437,0 1.59375,0.23438 0.60937,0.21875 0.89062,0.5625 0.28125,0.34375 0.40625,0.875 0.0625,0.32812 0.0625,1.1875 v 1.71875 q 0,1.79687 0.0781,2.28125 0.0781,0.46875 0.32812,0.90625 h -1.34375 q -0.20312,-0.40625 -0.26562,-0.9375 z m -0.10938,-2.875 q -0.70312,0.28125 -2.09375,0.48437 -0.79687,0.10938 -1.125,0.26563 -0.32812,0.14062 -0.51562,0.42187 -0.17188,0.26563 -0.17188,0.59375 0,0.51563 0.39063,0.85938 0.39062,0.34375 1.14062,0.34375 0.73438,0 1.3125,-0.3125 0.59375,-0.32813 0.85938,-0.89063 0.20312,-0.4375 0.20312,-1.29687 z m 6.11982,2.65625 0.1875,1.14062 q -0.54688,0.10938 -0.98438,0.10938 -0.6875,0 -1.07812,-0.21875 -0.39063,-0.21875 -0.54688,-0.57813 -0.15625,-0.35937 -0.15625,-1.51562 v -4.375 h -0.95312 v -1 h 0.95312 v -1.89063 l 1.28125,-0.76562 v 2.65625 h 1.29688 v 1 h -1.29688 v 4.4375 q 0,0.54687 0.0625,0.71875 0.0781,0.15625 0.21875,0.25 0.15625,0.0781 0.45313,0.0781 0.20312,0 0.5625,-0.0469 z m 6.21264,-1.625 1.26563,0.15625 q -0.20313,1.3125 -1.0625,2.0625 -0.84375,0.73437 -2.09375,0.73437 -1.5625,0 -2.51563,-1.01562 -0.9375,-1.03125 -0.9375,-2.92188 0,-1.23437 0.40625,-2.15625 0.40625,-0.92187 1.23438,-1.375 0.84375,-0.46875 1.8125,-0.46875 1.25,0 2.03125,0.625 0.78125,0.625 1.01562,1.76563 l -1.26562,0.20312 q -0.17188,-0.76562 -0.625,-1.15625 -0.45313,-0.39062 -1.09375,-0.39062 -0.98438,0 -1.59375,0.70312 -0.60938,0.70313 -0.60938,2.20313 0,1.53125 0.57813,2.23437 0.59375,0.6875 1.54687,0.6875 0.75,0 1.26563,-0.45312 0.51562,-0.46875 0.64062,-1.4375 z m 2.375,2.78125 v -10.48438 h 1.28125 v 3.75 q 0.90625,-1.03125 2.28125,-1.03125 0.84375,0 1.46875,0.32813 0.625,0.32812 0.89063,0.92187 0.26562,0.57813 0.26562,1.70313 v 4.8125 h -1.28125 v -4.8125 q 0,-0.96875 -0.42187,-1.40625 -0.42188,-0.4375 -1.1875,-0.4375 -0.57813,0 -1.07813,0.29687 -0.5,0.29688 -0.71875,0.8125 -0.21875,0.5 -0.21875,1.39063 v 4.15625 z"
     fill-rule="nonzero"
     id="path116" />
  <path
     fill="#000000"
     fill-opacity="0"
     d="m 590.43288,69.652135 c 0,4.08726 0.0158,6.13123 0.0315,8.17453 0.0158,2.0433 0.0315,4.08597 0.0315,8.17192"
     fill-rule="evenodd"
     id="path118" />
  <path
     stroke="#666666"
     stroke-width="1"
     stroke-linejoin="round"
     stroke-linecap="butt"
     d="m 590.43288,69.652135 c 0,4.08726 0.0158,6.13123 0.0315,8.17453 0.008,1.02167 0.0158,2.04315 0.0217,3.31998 l 0.005,1.42486"
     fill-rule="evenodd"
     id="path120" />
  <path
     fill="#666666"
     stroke="#666666"
     stroke-width="1"
     stroke-linecap="butt"
     d="m 590.49083,82.571515 -1.12628,-1.12291 1.12921,3.08809 1.11999,-3.09143 z"
     fill-rule="evenodd"
     id="path122" />
  <path
     fill="#000000"
     fill-opacity="0"
     d="m 590.43288,107.79648 c 0,4.08728 0.0158,6.13124 0.0315,8.17454 0.0158,2.04331 0.0315,4.08596 0.0315,8.17194"
     fill-rule="evenodd"
     id="path124" />
  <path
     stroke="#666666"
     stroke-width="1"
     stroke-linejoin="round"
     stroke-linecap="butt"
     d="m 590.43288,107.79648 c 0,4.08728 0.0158,6.13124 0.0315,8.17454 0.008,1.02166 0.0158,2.04314 0.0217,3.31998 l 0.005,1.42486"
     fill-rule="evenodd"
     id="path126" />
  <path
     fill="#666666"
     stroke="#666666"
     stroke-width="1"
     stroke-linecap="butt"
     d="m 590.49083,120.71586 -1.12628,-1.12291 1.12921,3.0881 1.11999,-3.09144 z"
     fill-rule="evenodd"
     id="path128" />
  <path
     fill="#000000"
     fill-opacity="0"
     d="m 590.43288,145.94085 c 0,4.08726 0.0158,6.13123 0.0315,8.17453 0.0158,2.0433 0.0315,4.08597 0.0315,8.17192"
     fill-rule="evenodd"
     id="path130" />
  <path
     stroke="#666666"
     stroke-width="1"
     stroke-linejoin="round"
     stroke-linecap="butt"
     d="m 590.43288,145.94085 c 0,4.08726 0.0158,6.13123 0.0315,8.17454 0.008,1.02166 0.0158,2.04314 0.0217,3.31998 l 0.005,1.42486"
     fill-rule="evenodd"
     id="path132" />
  <path
     fill="#666666"
     stroke="#666666"
     stroke-width="1"
     stroke-linecap="butt"
     d="m 590.49083,158.86023 -1.12628,-1.12291 1.12921,3.08809 1.11999,-3.09143 z"
     fill-rule="evenodd"
     id="path134" />
  <path
     fill="#d9ead3"
     d="m 497.22032,127.7782 v 0 c 0,-2.00624 1.6264,-3.63261 3.63263,-3.63261 h 179.15997 c 0.96338,0 1.88739,0.38272 2.5686,1.06396 0.68128,0.68124 1.06397,1.60523 1.06397,2.56865 v 14.53003 c 0,2.00625 -1.62635,3.63262 -3.63257,3.63262 H 500.85295 c -2.00623,0 -3.63263,-1.62637 -3.63263,-3.63262 z"
     fill-rule="evenodd"
     id="path136" />
  <path
     stroke="#34a853"
     stroke-width="1"
     stroke-linejoin="round"
     stroke-linecap="butt"
     d="m 497.22032,127.7782 v 0 c 0,-2.00624 1.6264,-3.63261 3.63263,-3.63261 h 179.15997 c 0.96338,0 1.88739,0.38272 2.5686,1.06396 0.68128,0.68124 1.06397,1.60523 1.06397,2.56865 v 14.53003 c 0,2.00625 -1.62635,3.63262 -3.63257,3.63262 H 500.85295 c -2.00623,0 -3.63263,-1.62637 -3.63263,-3.63262 z"
     fill-rule="evenodd"
     id="path138" />
  <path
     fill="#000000"
     d="m 555.15104,143.02946 v -10.5 h 1.17188 v 0.98437 q 0.42187,-0.57812 0.9375,-0.85937 0.51562,-0.29688 1.26562,-0.29688 0.96875,0 1.71875,0.5 0.75,0.5 1.125,1.42188 0.375,0.90625 0.375,1.98437 0,1.17188 -0.42187,2.10938 -0.40625,0.92187 -1.21875,1.42187 -0.79688,0.5 -1.67188,0.5 -0.64062,0 -1.15625,-0.26562 -0.51562,-0.28125 -0.84375,-0.6875 v 3.6875 z m 1.15625,-6.65625 q 0,1.45312 0.59375,2.15625 0.60938,0.70312 1.45313,0.70312 0.85937,0 1.46875,-0.71875 0.60937,-0.73437 0.60937,-2.25 0,-1.45312 -0.60937,-2.17187 -0.59375,-0.73438 -1.42188,-0.73438 -0.8125,0 -1.45312,0.78125 -0.64063,0.76563 -0.64063,2.23438 z m 6.97925,3.75 v -7.59375 h 1.15625 v 1.14062 q 0.45312,-0.79687 0.82812,-1.04687 0.375,-0.26563 0.8125,-0.26563 0.65625,0 1.32813,0.40625 l -0.4375,1.20313 q -0.46875,-0.28125 -0.95313,-0.28125 -0.42187,0 -0.76562,0.25 -0.32813,0.25 -0.46875,0.70312 -0.21875,0.6875 -0.21875,1.5 v 3.98438 z m 10.09942,-2.45313 1.32813,0.17188 q -0.3125,1.17187 -1.17188,1.8125 -0.84375,0.64062 -2.17187,0.64062 -1.67188,0 -2.65625,-1.01562 -0.96875,-1.03125 -0.96875,-2.89063 0,-1.92187 0.98437,-2.96875 1,-1.0625 2.57813,-1.0625 1.51562,0 2.48437,1.03125 0.96875,1.03125 0.96875,2.92188 0,0.10937 -0.0156,0.34375 h -5.65625 q 0.0625,1.25 0.70312,1.92187 0.64063,0.65625 1.59375,0.65625 0.70313,0 1.20313,-0.35937 0.5,-0.375 0.79687,-1.20313 z m -4.23437,-2.07812 h 4.25 q -0.0937,-0.95313 -0.48438,-1.4375 -0.625,-0.75 -1.60937,-0.75 -0.875,0 -1.48438,0.59375 -0.60937,0.59375 -0.67187,1.59375 z m 7.18231,7.4375 v -10.5 h 1.17188 v 0.98437 q 0.42187,-0.57812 0.9375,-0.85937 0.51562,-0.29688 1.26562,-0.29688 0.96875,0 1.71875,0.5 0.75,0.5 1.125,1.42188 0.375,0.90625 0.375,1.98437 0,1.17188 -0.42187,2.10938 -0.40625,0.92187 -1.21875,1.42187 -0.79688,0.5 -1.67188,0.5 -0.64062,0 -1.15625,-0.26562 -0.51562,-0.28125 -0.84375,-0.6875 v 3.6875 z m 1.15625,-6.65625 q 0,1.45312 0.59375,2.15625 0.60938,0.70312 1.45313,0.70312 0.85937,0 1.46875,-0.71875 0.60937,-0.73437 0.60937,-2.25 0,-1.45312 -0.60937,-2.17187 -0.59375,-0.73438 -1.42188,-0.73438 -0.8125,0 -1.45312,0.78125 -0.64063,0.76563 -0.64063,2.23438 z m 6.97925,3.75 v -7.59375 h 1.15625 v 1.14062 q 0.45312,-0.79687 0.82812,-1.04687 0.375,-0.26563 0.8125,-0.26563 0.65625,0 1.32813,0.40625 l -0.4375,1.20313 q -0.46875,-0.28125 -0.95313,-0.28125 -0.42187,0 -0.76562,0.25 -0.32813,0.25 -0.46875,0.70312 -0.21875,0.6875 -0.21875,1.5 v 3.98438 z m 4.41193,-3.79688 q 0,-2.10937 1.17187,-3.125 0.98438,-0.84375 2.39063,-0.84375 1.57812,0 2.5625,1.03125 1,1.01563 1,2.82813 0,1.46875 -0.4375,2.3125 -0.4375,0.82812 -1.28125,1.29687 -0.84375,0.46875 -1.84375,0.46875 -1.59375,0 -2.57813,-1.01562 -0.98437,-1.03125 -0.98437,-2.95313 z m 1.32812,0 q 0,1.45313 0.625,2.1875 0.64063,0.71875 1.60938,0.71875 0.96875,0 1.59375,-0.71875 0.64062,-0.73437 0.64062,-2.23437 0,-1.40625 -0.64062,-2.125 -0.64063,-0.73438 -1.59375,-0.73438 -0.96875,0 -1.60938,0.71875 -0.625,0.71875 -0.625,2.1875 z m 12.26044,1.01563 1.26562,0.15625 q -0.20312,1.3125 -1.0625,2.0625 -0.84375,0.73437 -2.09375,0.73437 -1.5625,0 -2.51562,-1.01562 -0.9375,-1.03125 -0.9375,-2.92188 0,-1.23437 0.40625,-2.15625 0.40625,-0.92187 1.23437,-1.375 0.84375,-0.46875 1.8125,-0.46875 1.25,0 2.03125,0.625 0.78125,0.625 1.01563,1.76563 l -1.26563,0.20312 q -0.17187,-0.76562 -0.625,-1.15625 -0.45312,-0.39062 -1.09375,-0.39062 -0.98437,0 -1.59375,0.70312 -0.60937,0.70313 -0.60937,2.20313 0,1.53125 0.57812,2.23437 0.59375,0.6875 1.54688,0.6875 0.75,0 1.26562,-0.45312 0.51563,-0.46875 0.64063,-1.4375 z m 7.57812,0.32812 1.32813,0.17188 q -0.3125,1.17187 -1.17188,1.8125 -0.84375,0.64062 -2.17187,0.64062 -1.67188,0 -2.65625,-1.01562 -0.96875,-1.03125 -0.96875,-2.89063 0,-1.92187 0.98437,-2.96875 1,-1.0625 2.57813,-1.0625 1.51562,0 2.48437,1.03125 0.96875,1.03125 0.96875,2.92188 0,0.10937 -0.0156,0.34375 h -5.65625 q 0.0625,1.25 0.70312,1.92187 0.64063,0.65625 1.59375,0.65625 0.70313,0 1.20313,-0.35937 0.5,-0.375 0.79687,-1.20313 z m -4.23437,-2.07812 h 4.25 q -0.0937,-0.95313 -0.48438,-1.4375 -0.625,-0.75 -1.60937,-0.75 -0.875,0 -1.48438,0.59375 -0.60937,0.59375 -0.67187,1.59375 z m 6.66675,2.26562 1.26562,-0.20312 q 0.10938,0.76562 0.59375,1.17187 0.5,0.40625 1.375,0.40625 0.89063,0 1.3125,-0.35937 0.4375,-0.35938 0.4375,-0.84375 0,-0.4375 -0.375,-0.6875 -0.26562,-0.17188 -1.3125,-0.4375 -1.42187,-0.35938 -1.96875,-0.60938 -0.54687,-0.26562 -0.82812,-0.73437 -0.28125,-0.46875 -0.28125,-1.01563 0,-0.51562 0.21875,-0.9375 0.23437,-0.4375 0.64062,-0.73437 0.29688,-0.21875 0.8125,-0.35938 0.53125,-0.15625 1.125,-0.15625 0.89063,0 1.5625,0.26563 0.67188,0.25 1,0.6875 0.32813,0.4375 0.4375,1.17187 l -1.25,0.17188 q -0.0937,-0.57813 -0.5,-0.90625 -0.40625,-0.34375 -1.15625,-0.34375 -0.89062,0 -1.28125,0.29687 -0.375,0.29688 -0.375,0.6875 0,0.25 0.15625,0.45313 0.15625,0.20312 0.5,0.34375 0.1875,0.0781 1.14063,0.32812 1.35937,0.35938 1.89062,0.59375 0.54688,0.23438 0.85938,0.6875 0.3125,0.4375 0.3125,1.09375 0,0.64063 -0.375,1.21875 -0.375,0.5625 -1.09375,0.875 -0.70313,0.3125 -1.59375,0.3125 -1.48438,0 -2.26563,-0.60937 -0.76562,-0.625 -0.98437,-1.82813 z m 7.32812,0 1.26563,-0.20312 q 0.10937,0.76562 0.59375,1.17187 0.5,0.40625 1.375,0.40625 0.89062,0 1.3125,-0.35937 0.4375,-0.35938 0.4375,-0.84375 0,-0.4375 -0.375,-0.6875 -0.26563,-0.17188 -1.3125,-0.4375 -1.42188,-0.35938 -1.96875,-0.60938 -0.54688,-0.26562 -0.82813,-0.73437 -0.28125,-0.46875 -0.28125,-1.01563 0,-0.51562 0.21875,-0.9375 0.23438,-0.4375 0.64063,-0.73437 0.29687,-0.21875 0.8125,-0.35938 0.53125,-0.15625 1.125,-0.15625 0.89062,0 1.5625,0.26563 0.67187,0.25 1,0.6875 0.32812,0.4375 0.4375,1.17187 l -1.25,0.17188 q -0.0937,-0.57813 -0.5,-0.90625 -0.40625,-0.34375 -1.15625,-0.34375 -0.89063,0 -1.28125,0.29687 -0.375,0.29688 -0.375,0.6875 0,0.25 0.15625,0.45313 0.15625,0.20312 0.5,0.34375 0.1875,0.0781 1.14062,0.32812 1.35938,0.35938 1.89063,0.59375 0.54687,0.23438 0.85937,0.6875 0.3125,0.4375 0.3125,1.09375 0,0.64063 -0.375,1.21875 -0.375,0.5625 -1.09375,0.875 -0.70312,0.3125 -1.59375,0.3125 -1.48437,0 -2.26562,-0.60937 -0.76563,-0.625 -0.98438,-1.82813 z"
     fill-rule="nonzero"
     id="path140" />
  <path
     fill="#ffffff"
     d="M 271.64552,112.90149 H 411.5825 V 98.759745 l 28.28351,28.283465 -28.28351,28.28346 V 141.18494 H 271.64552 Z"
     fill-rule="evenodd"
     id="path176" />
  <path
     stroke="#666666"
     stroke-width="1"
     stroke-linejoin="round"
     stroke-linecap="butt"
     d="M 271.64552,112.90149 H 411.5825 V 98.759745 l 28.28351,28.283465 -28.28351,28.28346 V 141.18494 H 271.64552 Z"
     fill-rule="evenodd"
     id="path178" />
  <path
     fill="#5f6368"
     d="m 11.71875,2.70313 h -4.875 V 16.21875 H 4.85938 V 2.70313 H 0 V 1.0625 h 11.71875 z m 4.88231,10.6875 2.625,-8.4375 h 2.0625 l -4.53125,13 q -1.04688,2.8125 -3.34375,2.8125 l -0.35938,-0.0312 -0.71875,-0.125 v -1.5625 l 0.51563,0.0312 q 0.98437,0 1.53125,-0.39063 0.54687,-0.39062 0.90625,-1.45312 L 15.71043,16.09375 11.69481,4.95313 h 2.09375 z m 15.91942,-2.6875 q 0,2.57812 -1.17188,4.15625 -1.17187,1.5625 -3.1875,1.5625 -2.04687,0 -3.21875,-1.29688 v 5.42188 h -1.9375 V 4.95313 h 1.76563 l 0.0937,1.25 Q 26.03605,4.75 28.1298,4.75 q 2.03125,0 3.20313,1.53125 1.1875,1.51563 1.1875,4.25 z M 30.5986,10.48438 q 0,-1.90625 -0.8125,-3 Q 28.9736,6.375 27.56735,6.375 q -1.75,0 -2.625,1.54688 v 5.39062 q 0.85938,1.54688 2.64063,1.54688 1.39062,0 2.20312,-1.09375 0.8125,-1.10938 0.8125,-3.28125 z m 6.46584,5.73437 H 35.14256 V 4.95313 h 1.92188 z m -2.07813,-14.25 q 0,-0.46875 0.28125,-0.79687 0.29688,-0.32813 0.85938,-0.32813 0.5625,0 0.84375,0.32813 0.29687,0.32812 0.29687,0.79687 0,0.46875 -0.29687,0.78125 -0.28125,0.3125 -0.84375,0.3125 -0.5625,0 -0.85938,-0.3125 -0.28125,-0.3125 -0.28125,-0.78125 z m 9.69145,12.89063 q 1.03125,0 1.79688,-0.625 0.76562,-0.625 0.85937,-1.5625 h 1.8125 q -0.0469,0.96875 -0.67187,1.84375 -0.60938,0.875 -1.64063,1.39062 -1.01562,0.51563 -2.15625,0.51563 -2.3125,0 -3.67187,-1.53125 -1.35938,-1.53125 -1.35938,-4.20313 v -0.32812 q 0,-1.64063 0.60938,-2.92188 0.60937,-1.28125 1.73437,-1.98437 1.125,-0.70313 2.67188,-0.70313 1.89062,0 3.14062,1.14063 1.26563,1.125 1.34375,2.9375 h -1.8125 Q 47.24031,7.73438 46.49026,7.03125 45.75589,6.32813 44.66214,6.32813 q -1.46875,0 -2.28125,1.0625 -0.79688,1.04687 -0.79688,3.04687 v 0.35938 q 0,1.95312 0.79688,3.01562 0.79687,1.04688 2.29687,1.04688 z m 13.60144,1.35937 q -0.17187,-0.32812 -0.28125,-1.1875 -1.34375,1.39063 -3.20312,1.39063 -1.67188,0 -2.73438,-0.9375 -1.0625,-0.9375 -1.0625,-2.39063 0,-1.76562 1.32813,-2.73437 1.34375,-0.96875 3.76562,-0.96875 h 1.875 V 8.5 q 0,-1.01562 -0.60937,-1.60937 -0.59375,-0.59375 -1.76563,-0.59375 -1.03125,0 -1.73437,0.51562 -0.70313,0.51563 -0.70313,1.26563 h -1.9375 q 0,-0.84375 0.59375,-1.625 0.60938,-0.79688 1.625,-1.25 Q 54.4667,4.75 55.70108,4.75 q 1.95312,0 3.046872,0.96875 1.10938,0.96875 1.15625,2.67188 v 5.1875 q 0,1.5625 0.39063,2.46875 v 0.17187 z M 55.07608,14.75 q 0.90625,0 1.71875,-0.46875 0.8125,-0.46875 1.17187,-1.21875 V 10.75 h -1.5 q -3.54687,0 -3.54687,2.07813 0,0.90625 0.59375,1.42187 0.60937,0.5 1.5625,0.5 z m 9.929462,1.46875 h -1.92188 v -16 h 1.92188 z m 10.98704,-14 v 2.73438 h 2.09375 V 6.4375 h -2.09375 v 6.98438 q 0,0.6875 0.28125,1.03125 0.28125,0.32812 0.95313,0.32812 0.32812,0 0.92187,-0.125 v 1.5625 q -0.76562,0.20313 -1.48437,0.20313 -1.29688,0 -1.95313,-0.78125 -0.65625,-0.78125 -0.65625,-2.21875 V 6.4375 h -2.04687 V 4.95313 h 2.04687 V 2.21875 Z m 5.29518,14 V 6.4375 h -1.78125 V 4.95313 h 1.78125 V 3.79688 q 0,-1.8125 0.96875,-2.79688 0.96875,-1 2.73438,-1 0.67187,0 1.32812,0.1875 L 86.209642,1.75 q -0.48438,-0.0937 -1.03125,-0.0937 -0.9375,0 -1.45313,0.54688 -0.51562,0.54687 -0.51562,1.5625 v 1.1875 h 2.40625 v 1.48437 h -2.40625 v 9.78125 z m 6.4982,-1.01562 q 0,-0.5 0.29688,-0.82813 0.29687,-0.32812 0.89062,-0.32812 0.59375,0 0.89063,0.32812 0.3125,0.32813 0.3125,0.82813 0,0.48437 -0.3125,0.8125 -0.29688,0.3125 -0.89063,0.3125 -0.59375,0 -0.89062,-0.3125 -0.29688,-0.32813 -0.29688,-0.8125 z m 5.0976,-4.71875 q 0,-2.59375 1.23437,-4.15625 1.23438,-1.57813 3.21875,-1.57813 1.98438,0 3.140628,1.34375 v -5.875 h 1.92187 v 16 h -1.76562 l -0.0937,-1.20312 q -1.156248,1.40625 -3.218748,1.40625 -1.96875,0 -3.20313,-1.59375 -1.23437,-1.60938 -1.23437,-4.1875 z m 1.9375,0.21875 q 0,1.92187 0.78125,3.01562 0.79687,1.07813 2.1875,1.07813 1.84375,0 2.687498,-1.65625 V 7.96875 Q 99.602312,6.375 97.821062,6.375 q -1.42188,0 -2.21875,1.09375 -0.78125,1.09375 -0.78125,3.23438 z m 17.528318,5.51562 q -0.17188,-0.32812 -0.28125,-1.1875 -1.34375,1.39063 -3.20313,1.39063 -1.67187,0 -2.73437,-0.9375 -1.0625,-0.9375 -1.0625,-2.39063 0,-1.76562 1.32812,-2.73437 1.34375,-0.96875 3.76563,-0.96875 h 1.875 V 8.5 q 0,-1.01562 -0.60938,-1.60937 -0.59375,-0.59375 -1.76562,-0.59375 -1.03125,0 -1.73438,0.51562 -0.70312,0.51563 -0.70312,1.26563 h -1.9375 q 0,-0.84375 0.59375,-1.625 0.60937,-0.79688 1.625,-1.25 1.03125,-0.45313 2.26562,-0.45313 1.95313,0 3.04688,0.96875 1.10936,0.96875 1.15623,2.67188 v 5.1875 q 0,1.5625 0.39063,2.46875 v 0.17187 z M 109.14625,14.75 q 0.90625,0 1.71875,-0.46875 0.8125,-0.46875 1.17188,-1.21875 V 10.75 h -1.5 q -3.54688,0 -3.54688,2.07813 0,0.90625 0.59375,1.42187 0.60938,0.5 1.5625,0.5 z M 119.60696,2.21875 v 2.73438 h 2.09375 V 6.4375 h -2.09375 v 6.98438 q 0,0.6875 0.28125,1.03125 0.28125,0.32812 0.95313,0.32812 0.32812,0 0.92187,-0.125 v 1.5625 q -0.76562,0.20313 -1.48437,0.20313 -1.29688,0 -1.95313,-0.78125 -0.65625,-0.78125 -0.65625,-2.21875 V 6.4375 h -2.04687 V 4.95313 h 2.04687 V 2.21875 Z m 11.31079,14 q -0.17187,-0.32812 -0.28125,-1.1875 -1.34375,1.39063 -3.20312,1.39063 -1.67188,0 -2.73438,-0.9375 -1.0625,-0.9375 -1.0625,-2.39063 0,-1.76562 1.32813,-2.73437 1.34375,-0.96875 3.76562,-0.96875 h 1.875 V 8.5 q 0,-1.01562 -0.60937,-1.60937 -0.59375,-0.59375 -1.76563,-0.59375 -1.03125,0 -1.73437,0.51562 -0.70313,0.51563 -0.70313,1.26563 h -1.9375 q 0,-0.84375 0.59375,-1.625 0.60938,-0.79688 1.625,-1.25 1.03125,-0.45313 2.26563,-0.45313 1.95312,0 3.04687,0.96875 1.10938,0.96875 1.15625,2.67188 v 5.1875 q 0,1.5625 0.39063,2.46875 v 0.17187 z M 127.71463,14.75 q 0.90625,0 1.71875,-0.46875 0.8125,-0.46875 1.17187,-1.21875 V 10.75 h -1.5 q -3.54687,0 -3.54687,2.07813 0,0.90625 0.59375,1.42187 0.60937,0.5 1.5625,0.5 z m 22.63133,-4.04687 q 0,2.57812 -1.17187,4.15625 -1.17188,1.5625 -3.18752,1.5625 -2.04687,0 -3.21875,-1.29688 v 5.42188 h -1.9375 V 4.95313 h 1.76563 l 0.0937,1.25 Q 143.86152,4.75 145.95527,4.75 q 2.03127,0 3.20314,1.53125 1.1875,1.51563 1.1875,4.25 z m -1.92187,-0.21875 q 0,-1.90625 -0.8125,-3 -0.81252,-1.10938 -2.21877,-1.10938 -1.75,0 -2.625,1.54688 v 5.39062 q 0.85938,1.54688 2.64063,1.54688 1.39062,0 2.20314,-1.09375 0.8125,-1.10938 0.8125,-3.28125 z m 6.46582,5.73437 h -1.92188 V 4.95313 h 1.92188 z m -2.07813,-14.25 q 0,-0.46875 0.28125,-0.79687 0.29688,-0.32813 0.85938,-0.32813 0.5625,0 0.84375,0.32813 0.29687,0.32812 0.29687,0.79687 0,0.46875 -0.29687,0.78125 -0.28125,0.3125 -0.84375,0.3125 -0.5625,0 -0.85938,-0.3125 -0.28125,-0.3125 -0.28125,-0.78125 z m 14.67584,8.73438 q 0,2.57812 -1.17187,4.15625 -1.17188,1.5625 -3.1875,1.5625 -2.04688,0 -3.21875,-1.29688 v 5.42188 H 157.972 V 4.95313 h 1.76562 l 0.0937,1.25 Q 161.0032,4.75 163.09695,4.75 q 2.03125,0 3.20312,1.53125 1.1875,1.51563 1.1875,4.25 z m -1.92187,-0.21875 q 0,-1.90625 -0.8125,-3 -0.8125,-1.10938 -2.21875,-1.10938 -1.75,0 -2.625,1.54688 v 5.39062 q 0.85937,1.54688 2.64062,1.54688 1.39063,0 2.20313,-1.09375 0.8125,-1.10938 0.8125,-3.28125 z m 9.05957,5.9375 q -2.29688,0 -3.73438,-1.5 -1.4375,-1.5 -1.4375,-4.03125 v -0.34375 q 0,-1.6875 0.64063,-3 0.64062,-1.3125 1.78125,-2.04688 1.15625,-0.75 2.5,-0.75 2.20312,0 3.42187,1.45313 1.21875,1.4375 1.21875,4.125 v 0.8125 h -7.64062 q 0.0469,1.65625 0.96875,2.6875 0.9375,1.03125 2.375,1.03125 1.03125,0 1.73437,-0.42188 0.70313,-0.42187 1.23438,-1.10937 l 1.1875,0.92187 q -1.42188,2.17188 -4.25,2.17188 z m -0.25,-10.09375 q -1.15625,0 -1.95313,0.84375 -0.79687,0.84375 -0.98437,2.375 h 5.65625 V 9.40625 q -0.0937,-1.46875 -0.79688,-2.26562 -0.70312,-0.8125 -1.92187,-0.8125 z m 8.9556,9.89062 h -1.92188 v -16 h 1.92188 z m 5.17581,0 h -1.92188 V 4.95313 h 1.92188 z m -2.07813,-14.25 q 0,-0.46875 0.28125,-0.79687 0.29688,-0.32813 0.85938,-0.32813 0.5625,0 0.84375,0.32813 0.29687,0.32812 0.29687,0.79687 0,0.46875 -0.29687,0.78125 -0.28125,0.3125 -0.84375,0.3125 -0.5625,0 -0.85938,-0.3125 -0.28125,-0.3125 -0.28125,-0.78125 z m 6.98835,2.98438 0.0625,1.40625 q 1.29687,-1.60938 3.375,-1.60938 3.57812,0 3.60937,4.01563 v 7.45312 h -1.9375 V 8.76563 q 0,-1.21875 -0.54687,-1.79688 -0.54688,-0.59375 -1.70313,-0.59375 -0.9375,0 -1.65625,0.5 -0.70312,0.5 -1.09375,1.3125 v 8.03125 h -1.9375 V 4.95313 Z m 14.62731,11.46875 q -2.29687,0 -3.73437,-1.5 -1.4375,-1.5 -1.4375,-4.03125 v -0.34375 q 0,-1.6875 0.64062,-3 0.64063,-1.3125 1.78125,-2.04688 1.15625,-0.75 2.5,-0.75 2.20313,0 3.42188,1.45313 1.21875,1.4375 1.21875,4.125 v 0.8125 h -7.64063 q 0.0469,1.65625 0.96875,2.6875 0.9375,1.03125 2.375,1.03125 1.03125,0 1.73438,-0.42188 0.70312,-0.42187 1.23437,-1.10937 l 1.1875,0.92187 q -1.42187,2.17188 -4.25,2.17188 z m -0.25,-10.09375 q -1.15625,0 -1.95312,0.84375 -0.79688,0.84375 -0.98438,2.375 h 5.65625 V 9.40625 q -0.0937,-1.46875 -0.79687,-2.26562 -0.70313,-0.8125 -1.92188,-0.8125 z"
     fill-rule="nonzero"
     id="path182" />
  <path
     fill="#000000"
     fill-opacity="0"
     d="M 475.97361,-13.26125 H 718.33579 V 31.99859 H 475.97361 Z"
     fill-rule="evenodd"
     id="path184" />
  <path
     fill="#5f6368"
     d="m 545.61838,14.23438 q -0.76563,1.09375 -2.15625,1.64062 -1.375,0.54688 -3.20313,0.54688 -1.85937,0 -3.29687,-0.85938 -1.4375,-0.875 -2.21875,-2.46875 -0.78125,-1.60937 -0.8125,-3.73437 v -1.3125 q 0,-3.42188 1.59375,-5.3125 1.60937,-1.89063 4.5,-1.89063 2.375,0 3.8125,1.21875 1.45312,1.21875 1.78125,3.4375 h -2 q -0.5625,-3 -3.57813,-3 -2.01562,0 -3.04687,1.40625 -1.03125,1.40625 -1.04688,4.07813 v 1.25 q 0,2.54687 1.15625,4.0625 1.17188,1.5 3.17188,1.5 1.125,0 1.96875,-0.25 0.84375,-0.25 1.39062,-0.84375 v -3.40625 h -3.51562 v -1.625 h 5.5 z m 8.48083,-7.5625 q -0.4375,-0.0625 -0.95312,-0.0625 -1.89063,0 -2.5625,1.60937 v 8 h -1.9375 V 4.95313 h 1.875 l 0.0312,1.29687 q 0.95312,-1.5 2.6875,-1.5 0.5625,0 0.85937,0.14063 z m 8.31592,9.54687 q -0.17187,-0.32812 -0.28125,-1.1875 -1.34375,1.39063 -3.20312,1.39063 -1.67188,0 -2.73438,-0.9375 -1.0625,-0.9375 -1.0625,-2.39063 0,-1.76562 1.32813,-2.73437 1.34375,-0.96875 3.76562,-0.96875 h 1.875 V 8.5 q 0,-1.01562 -0.60937,-1.60937 -0.59375,-0.59375 -1.76563,-0.59375 -1.03125,0 -1.73437,0.51562 -0.70313,0.51563 -0.70313,1.26563 h -1.9375 q 0,-0.84375 0.59375,-1.625 0.60938,-0.79688 1.625,-1.25 1.03125,-0.45313 2.26563,-0.45313 1.95312,0 3.04687,0.96875 1.10938,0.96875 1.15625,2.67188 v 5.1875 q 0,1.5625 0.39063,2.46875 v 0.17187 z M 559.21201,14.75 q 0.90625,0 1.71875,-0.46875 0.8125,-0.46875 1.17187,-1.21875 V 10.75 h -1.5 q -3.54687,0 -3.54687,2.07813 0,0.90625 0.59375,1.42187 0.60937,0.5 1.5625,0.5 z m 9.92944,1.46875 h -1.92187 V 4.95313 h 1.92187 z m -2.07812,-14.25 q 0,-0.46875 0.28125,-0.79687 0.29687,-0.32813 0.85937,-0.32813 0.5625,0 0.84375,0.32813 0.29688,0.32812 0.29688,0.79687 0,0.46875 -0.29688,0.78125 -0.28125,0.3125 -0.84375,0.3125 -0.5625,0 -0.85937,-0.3125 -0.28125,-0.3125 -0.28125,-0.78125 z m 6.98834,2.98438 0.0625,1.40625 q 1.29687,-1.60938 3.375,-1.60938 3.57812,0 3.60937,4.01563 v 7.45312 h -1.9375 V 8.76563 q 0,-1.21875 -0.54687,-1.79688 -0.54688,-0.59375 -1.70313,-0.59375 -0.9375,0 -1.65625,0.5 -0.70312,0.5 -1.09375,1.3125 v 8.03125 h -1.9375 V 4.95313 Z m 24.73541,5.75 q 0,2.57812 -1.17187,4.15625 -1.17188,1.5625 -3.1875,1.5625 -2.04688,0 -3.21875,-1.29688 v 5.42188 h -1.9375 V 4.95313 h 1.76562 l 0.0937,1.25 Q 592.30266,4.75 594.39641,4.75 q 2.03125,0 3.20312,1.53125 1.1875,1.51563 1.1875,4.25 z m -1.92187,-0.21875 q 0,-1.90625 -0.8125,-3 -0.8125,-1.10938 -2.21875,-1.10938 -1.75,0 -2.625,1.54688 v 5.39062 q 0.85937,1.54688 2.64062,1.54688 1.39063,0 2.20313,-1.09375 0.8125,-1.10938 0.8125,-3.28125 z m 6.46588,5.73437 h -1.92188 V 4.95313 h 1.92188 z m -2.07813,-14.25 q 0,-0.46875 0.28125,-0.79687 0.29688,-0.32813 0.85938,-0.32813 0.5625,0 0.84375,0.32813 0.29687,0.32812 0.29687,0.79687 0,0.46875 -0.29687,0.78125 -0.28125,0.3125 -0.84375,0.3125 -0.5625,0 -0.85938,-0.3125 -0.28125,-0.3125 -0.28125,-0.78125 z m 14.67578,8.73438 q 0,2.57812 -1.17187,4.15625 -1.17188,1.5625 -3.1875,1.5625 -2.04688,0 -3.21875,-1.29688 v 5.42188 h -1.9375 V 4.95313 h 1.76562 l 0.0937,1.25 Q 609.44432,4.75 611.53807,4.75 q 2.03125,0 3.20312,1.53125 1.1875,1.51563 1.1875,4.25 z m -1.92187,-0.21875 q 0,-1.90625 -0.8125,-3 -0.8125,-1.10938 -2.21875,-1.10938 -1.75,0 -2.625,1.54688 v 5.39062 q 0.85937,1.54688 2.64062,1.54688 1.39063,0 2.20313,-1.09375 0.8125,-1.10938 0.8125,-3.28125 z m 9.05963,5.9375 q -2.29688,0 -3.73438,-1.5 -1.4375,-1.5 -1.4375,-4.03125 v -0.34375 q 0,-1.6875 0.64063,-3 0.64062,-1.3125 1.78125,-2.04688 1.15625,-0.75 2.5,-0.75 2.20312,0 3.42187,1.45313 1.21875,1.4375 1.21875,4.125 v 0.8125 h -7.64062 q 0.0469,1.65625 0.96875,2.6875 0.9375,1.03125 2.375,1.03125 1.03125,0 1.73437,-0.42188 0.70313,-0.42187 1.23438,-1.10937 l 1.1875,0.92187 q -1.42188,2.17188 -4.25,2.17188 z m -0.25,-10.09375 q -1.15625,0 -1.95313,0.84375 -0.79687,0.84375 -0.98437,2.375 h 5.65625 V 9.40625 q -0.0937,-1.46875 -0.79688,-2.26562 -0.70312,-0.8125 -1.92187,-0.8125 z m 8.95557,9.89062 h -1.92188 v -16 h 1.92188 z m 5.17584,0 h -1.92188 V 4.95313 h 1.92188 z m -2.07813,-14.25 q 0,-0.46875 0.28125,-0.79687 0.29688,-0.32813 0.85938,-0.32813 0.5625,0 0.84375,0.32813 0.29687,0.32812 0.29687,0.79687 0,0.46875 -0.29687,0.78125 -0.28125,0.3125 -0.84375,0.3125 -0.5625,0 -0.85938,-0.3125 -0.28125,-0.3125 -0.28125,-0.78125 z m 6.98828,2.98438 0.0625,1.40625 q 1.29688,-1.60938 3.375,-1.60938 3.57813,0 3.60938,4.01563 v 7.45312 h -1.9375 V 8.76563 q 0,-1.21875 -0.54688,-1.79688 -0.54687,-0.59375 -1.70312,-0.59375 -0.9375,0 -1.65625,0.5 -0.70313,0.5 -1.09375,1.3125 v 8.03125 h -1.9375 V 4.95313 Z m 14.62738,11.46875 q -2.29687,0 -3.73437,-1.5 -1.4375,-1.5 -1.4375,-4.03125 v -0.34375 q 0,-1.6875 0.64062,-3 0.64063,-1.3125 1.78125,-2.04688 1.15625,-0.75 2.5,-0.75 2.20313,0 3.42188,1.45313 1.21875,1.4375 1.21875,4.125 v 0.8125 h -7.64063 q 0.0469,1.65625 0.96875,2.6875 0.9375,1.03125 2.375,1.03125 1.03125,0 1.73438,-0.42188 0.70312,-0.42187 1.23437,-1.10937 l 1.1875,0.92187 q -1.42187,2.17188 -4.25,2.17188 z m -0.25,-10.09375 q -1.15625,0 -1.95312,0.84375 -0.79688,0.84375 -0.98438,2.375 h 5.65625 V 9.40625 q -0.0937,-1.46875 -0.79687,-2.26562 -0.70313,-0.8125 -1.92188,-0.8125 z"
     fill-rule="nonzero"
     id="path186" />
</svg>
